<?xml version="1.0" encoding="UTF-8"?>
<svg version="1.1" xmlns="http://www.w3.org/2000/svg" width="90" height="92">
<path d="M0 0 C1.98 0 3.96 0 6 0 C6.33 11.22 6.66 22.44 7 34 C14.32364476 25.07764974 14.32364476 25.07764974 21.4375 16 C22.06688477 15.18208984 22.06688477 15.18208984 22.70898438 14.34765625 C24.55406481 11.94051782 26.3167526 9.52487109 28 7 C30 8 32 9 34 10 C32.46969715 14.72436518 29.83734116 18.02337355 26.75 21.8125 C25.75846204 23.0502588 24.7675727 24.28853747 23.77734375 25.52734375 C23.06167236 26.41848877 23.06167236 26.41848877 22.33154297 27.32763672 C19.81013993 30.49441539 17.40761508 33.74646611 15 37 C22.76918938 35.04914628 30.32966973 32.60770959 37.89208984 29.98193359 C38.6392627 29.72621582 39.38643555 29.47049805 40.15625 29.20703125 C40.82462891 28.9747583 41.49300781 28.74248535 42.18164062 28.50317383 C44 28 44 28 47 28 C47.495 31.465 47.495 31.465 48 35 C43.92693379 36.43008021 39.85180574 37.85407095 35.7746582 39.27246094 C34.38800757 39.75581792 33.00193379 40.24083311 31.61645508 40.72753906 C29.62470502 41.42689953 27.63095545 42.12026718 25.63671875 42.8125 C24.43748779 43.23144531 23.23825684 43.65039062 22.00268555 44.08203125 C19 45 19 45 16 45 C16 45.66 16 46.32 16 47 C17.23621094 47.24492188 18.47242188 47.48984375 19.74609375 47.7421875 C25.68530024 49.06201116 31.33994239 51.08148731 37.0625 53.125 C38.11888672 53.49753906 39.17527344 53.87007812 40.26367188 54.25390625 C42.84412317 55.16465377 45.42280144 56.08009705 48 57 C47.67 59.31 47.34 61.62 47 64 C39.36339 61.98456286 31.8286057 59.73688696 24.3125 57.3125 C23.31283203 56.99216797 22.31316406 56.67183594 21.28320312 56.34179688 C18.85478228 55.5633079 16.42707018 54.78268758 14 54 C14.7734375 54.95519531 15.546875 55.91039062 16.34375 56.89453125 C34 78.77749447 34 78.77749447 34 82 C30.53846154 85 30.53846154 85 28 85 C26.41574014 83.13849467 24.95130689 81.27425123 23.5 79.3125 C22.6056293 78.12618103 21.71109297 76.93998691 20.81640625 75.75390625 C20.35508301 75.13789551 19.89375977 74.52188477 19.41845703 73.88720703 C17.1153998 70.82307064 14.77594487 67.78715784 12.4375 64.75 C12.00824219 64.18966064 11.57898437 63.62932129 11.13671875 63.05200195 C9.17701828 60.43315891 9.17701828 60.43315891 7 58 C6.67 69.22 6.34 80.44 6 92 C4.02 92 2.04 92 0 92 C-0.33 80.78 -0.66 69.56 -1 58 C-8.32364476 66.92235026 -8.32364476 66.92235026 -15.4375 76 C-15.85708984 76.54527344 -16.27667969 77.09054688 -16.70898438 77.65234375 C-18.55406481 80.05948218 -20.3167526 82.47512891 -22 85 C-24 84 -26 83 -28 82 C-26.46969715 77.27563482 -23.83734116 73.97662645 -20.75 70.1875 C-19.75846204 68.9497412 -18.7675727 67.71146253 -17.77734375 66.47265625 C-17.30022949 65.87855957 -16.82311523 65.28446289 -16.33154297 64.67236328 C-13.81013993 61.50558461 -11.40761508 58.25353389 -9 55 C-16.76918938 56.95085372 -24.32966973 59.39229041 -31.89208984 62.01806641 C-32.6392627 62.27378418 -33.38643555 62.52950195 -34.15625 62.79296875 C-34.82462891 63.0252417 -35.49300781 63.25751465 -36.18164062 63.49682617 C-38 64 -38 64 -41 64 C-41.33 61.69 -41.66 59.38 -42 57 C-37.92693379 55.56991979 -33.85180574 54.14592905 -29.7746582 52.72753906 C-28.38800757 52.24418208 -27.00193379 51.75916689 -25.61645508 51.27246094 C-23.62470502 50.57310047 -21.63095545 49.87973282 -19.63671875 49.1875 C-18.43748779 48.76855469 -17.23825684 48.34960938 -16.00268555 47.91796875 C-13 47 -13 47 -10 47 C-10 46.34 -10 45.68 -10 45 C-11.23621094 44.75507812 -12.47242188 44.51015625 -13.74609375 44.2578125 C-19.68530024 42.93798884 -25.33994239 40.91851269 -31.0625 38.875 C-32.11888672 38.50246094 -33.17527344 38.12992188 -34.26367188 37.74609375 C-36.84412317 36.83534623 -39.42280144 35.91990295 -42 35 C-41.67 32.69 -41.34 30.38 -41 28 C-33.36339 30.01543714 -25.8286057 32.26311304 -18.3125 34.6875 C-17.31283203 35.00783203 -16.31316406 35.32816406 -15.28320312 35.65820312 C-12.85478228 36.4366921 -10.42707018 37.21731242 -8 38 C-8.7734375 37.04480469 -9.546875 36.08960938 -10.34375 35.10546875 C-28 13.22250553 -28 13.22250553 -28 10 C-24.53846154 7 -24.53846154 7 -22 7 C-20.41574014 8.86150533 -18.95130689 10.72574877 -17.5 12.6875 C-16.6056293 13.87381897 -15.71109297 15.06001309 -14.81640625 16.24609375 C-14.35508301 16.86210449 -13.89375977 17.47811523 -13.41845703 18.11279297 C-11.1153998 21.17692936 -8.77594487 24.21284216 -6.4375 27.25 C-6.00824219 27.81033936 -5.57898437 28.37067871 -5.13671875 28.94799805 C-3.17701828 31.56684109 -3.17701828 31.56684109 -1 34 C-0.67 22.78 -0.34 11.56 0 0 Z " fill="#FF5029" transform="translate(42,0)"/>
</svg>
