<?xml version="1.0" encoding="UTF-8"?>
<svg version="1.1" xmlns="http://www.w3.org/2000/svg" width="500" height="500">
<path d="M0 0 C0.59941406 0.45503906 1.19882812 0.91007812 1.81640625 1.37890625 C12.38285267 9.59180544 21.1564554 23.0302951 25.1875 35.6875 C25.44160645 36.47640625 25.69571289 37.2653125 25.95751953 38.078125 C32.32428943 58.48497054 32.45699715 82.62792516 23.44921875 102.34765625 C19.98367042 108.69026358 15.32245958 115.25506675 9 119 C5.97619373 119.6853912 3.05487156 119.63459389 -0.03466797 119.56762695 C-0.92311905 119.56835709 -1.81157013 119.56908722 -2.72694397 119.56983948 C-5.64932344 119.56636956 -8.57008817 119.52753689 -11.4921875 119.48828125 C-13.52384572 119.478951 -15.55551522 119.47183589 -17.58718872 119.46684265 C-22.92382084 119.44778965 -28.25976808 119.39870302 -33.59613037 119.34332275 C-39.04576351 119.29209391 -44.49550776 119.26932082 -49.9453125 119.24414062 C-60.63050856 119.19058301 -71.31519723 119.1052904 -82 119 C-81 116 -81 116 -78.625 113.6875 C-74.27039185 109.2292107 -72.81748503 105.67625867 -72.625 99.5 C-72.84424634 93.01907831 -74.51907196 89.18325167 -79.25 84.75 C-86.17509087 79.26164997 -94.47308929 79.10630406 -103 80 C-106.01326194 81.03566235 -108.25396401 82.32186689 -111 84 C-112.485 84.495 -112.485 84.495 -114 85 C-115.11935073 86.64630193 -115.11935073 86.64630193 -116 89 C-116.26039063 89.56976563 -116.52078125 90.13953125 -116.7890625 90.7265625 C-120.00526319 98.27110804 -119.90208332 105.2438772 -117.04296875 112.921875 C-114.80303586 117.38496225 -111.91285293 120.26365003 -107.25293446 122.0574789 C-104.03889376 122.98873073 -101.4923567 123.25748071 -98.16007996 123.27174377 C-97.01736633 123.2814621 -95.87465271 123.29118042 -94.6973114 123.30119324 C-92.8385009 123.30207695 -92.8385009 123.30207695 -90.94213867 123.30297852 C-88.96813583 123.31563751 -88.96813583 123.31563751 -86.95425415 123.32855225 C-84.10107588 123.34677693 -81.24796244 123.35884952 -78.39473534 123.36609077 C-73.88664544 123.37759976 -69.37869947 123.40306272 -64.87068176 123.43040466 C-57.74640376 123.47198934 -50.62211882 123.50443936 -43.49777728 123.53287882 C-30.72163598 123.58395361 -17.94555401 123.64590477 -5.16951543 123.71821922 C-0.68394433 123.74318359 3.80160742 123.76259498 8.2872225 123.77760136 C10.40075344 123.78532943 12.51426032 123.79525458 14.6277771 123.80615234 C17.21015278 123.81936214 19.79255041 123.8289334 22.37495422 123.83433533 C23.50356873 123.84123383 24.63218323 123.84813232 25.79499817 123.85523987 C26.78181989 123.85909478 27.76864161 123.8629497 28.78536701 123.86692142 C31 124 31 124 32 125 C32.09550698 126.41678911 32.12188483 127.83831241 32.12025452 129.25831604 C32.12231651 130.63609222 32.12231651 130.63609222 32.12442017 132.04170227 C32.12082489 133.05733749 32.11722961 134.07297272 32.11352539 135.11938477 C32.11367142 136.18266998 32.11381744 137.2459552 32.1139679 138.34146118 C32.11326825 141.87479658 32.10547343 145.40808 32.09765625 148.94140625 C32.09579225 151.38378368 32.09436827 153.82616149 32.09336853 156.26853943 C32.08954189 162.71134464 32.07971037 169.15412748 32.06866455 175.59692383 C32.05845356 182.16552426 32.05387158 188.7341283 32.04882812 195.30273438 C32.03808823 208.20183249 32.02120104 221.10091506 32 234 C14.1357221 234.04687882 -3.72853967 234.08206624 -21.59286594 234.10362434 C-29.8889987 234.11390358 -38.18509307 234.1278992 -46.48120117 234.15087891 C-53.71849834 234.17091608 -60.95576767 234.18374075 -68.19309181 234.18817699 C-72.01936824 234.19076702 -75.84556513 234.19678339 -79.67181587 234.21146011 C-83.28576775 234.22520795 -86.89960859 234.22918859 -90.51358414 234.22621536 C-92.44659607 234.22701332 -94.37959639 234.2376837 -96.31257629 234.24884033 C-108.1977597 234.2213856 -119.9423735 232.93159265 -131.4375 229.8125 C-132.23115967 229.59891846 -133.02481934 229.38533691 -133.8425293 229.1652832 C-151.06555499 224.31684937 -167.5352389 215.79749445 -181 204 C-181.96679688 203.16597656 -182.93359375 202.33195313 -183.9296875 201.47265625 C-208.01732238 180.31465061 -225.50778534 149.30414957 -228 117 C-228.88750621 99.19352623 -229.19953921 81.21484195 -224 64 C-223.64591064 62.8234082 -223.64591064 62.8234082 -223.28466797 61.62304688 C-217.61024885 43.49124729 -208.49391997 27.28902342 -196 13 C-194.94425781 11.79150391 -194.94425781 11.79150391 -193.8671875 10.55859375 C-147.06743693 -39.17726285 -51.73611606 -44.25168697 0 0 Z " fill="#000000" transform="translate(346,173)"/>
</svg>
