<svg xmlns="http://www.w3.org/2000/svg" xmlns:xlink="http://www.w3.org/1999/xlink" width="1080" zoomAndPan="magnify" viewBox="0 0 810 809.999993" height="1080" preserveAspectRatio="xMidYMid meet" version="1.0"><defs><g/><radialGradient gradientTransform="matrix(1, 0, 0, 1, 0.0000035, 0.00002)" gradientUnits="userSpaceOnUse" r="572.756238" cx="404.999997" id="fbcee06872" cy="404.999997" fx="404.999997" fy="404.999997"><stop stop-opacity="1" stop-color="rgb(75.598145%, 99.882507%, 44.618225%)" offset="0"/><stop stop-opacity="1" stop-color="rgb(75.395203%, 99.649048%, 44.454956%)" offset="0.00390625"/><stop stop-opacity="1" stop-color="rgb(75.192261%, 99.417114%, 44.293213%)" offset="0.0078125"/><stop stop-opacity="1" stop-color="rgb(74.990845%, 99.183655%, 44.129944%)" offset="0.0117188"/><stop stop-opacity="1" stop-color="rgb(74.787903%, 98.951721%, 43.968201%)" offset="0.015625"/><stop stop-opacity="1" stop-color="rgb(74.586487%, 98.718262%, 43.804932%)" offset="0.0195312"/><stop stop-opacity="1" stop-color="rgb(74.383545%, 98.484802%, 43.643188%)" offset="0.0234375"/><stop stop-opacity="1" stop-color="rgb(74.180603%, 98.252869%, 43.479919%)" offset="0.0273438"/><stop stop-opacity="1" stop-color="rgb(73.979187%, 98.019409%, 43.318176%)" offset="0.03125"/><stop stop-opacity="1" stop-color="rgb(73.776245%, 97.787476%, 43.154907%)" offset="0.0351562"/><stop stop-opacity="1" stop-color="rgb(73.574829%, 97.554016%, 42.993164%)" offset="0.0390625"/><stop stop-opacity="1" stop-color="rgb(73.371887%, 97.322083%, 42.829895%)" offset="0.0429688"/><stop stop-opacity="1" stop-color="rgb(73.168945%, 97.088623%, 42.668152%)" offset="0.046875"/><stop stop-opacity="1" stop-color="rgb(72.967529%, 96.855164%, 42.504883%)" offset="0.0507812"/><stop stop-opacity="1" stop-color="rgb(72.764587%, 96.62323%, 42.34314%)" offset="0.0546875"/><stop stop-opacity="1" stop-color="rgb(72.563171%, 96.389771%, 42.179871%)" offset="0.0585938"/><stop stop-opacity="1" stop-color="rgb(72.360229%, 96.157837%, 42.018127%)" offset="0.0625"/><stop stop-opacity="1" stop-color="rgb(72.157288%, 95.924377%, 41.854858%)" offset="0.0664062"/><stop stop-opacity="1" stop-color="rgb(71.955872%, 95.692444%, 41.693115%)" offset="0.0703125"/><stop stop-opacity="1" stop-color="rgb(71.75293%, 95.458984%, 41.529846%)" offset="0.0742188"/><stop stop-opacity="1" stop-color="rgb(71.549988%, 95.225525%, 41.368103%)" offset="0.078125"/><stop stop-opacity="1" stop-color="rgb(71.348572%, 94.993591%, 41.204834%)" offset="0.0820312"/><stop stop-opacity="1" stop-color="rgb(71.14563%, 94.760132%, 41.043091%)" offset="0.0859375"/><stop stop-opacity="1" stop-color="rgb(70.944214%, 94.528198%, 40.879822%)" offset="0.0898438"/><stop stop-opacity="1" stop-color="rgb(70.741272%, 94.294739%, 40.718079%)" offset="0.09375"/><stop stop-opacity="1" stop-color="rgb(70.53833%, 94.062805%, 40.55481%)" offset="0.0976562"/><stop stop-opacity="1" stop-color="rgb(70.336914%, 93.829346%, 40.393066%)" offset="0.101562"/><stop stop-opacity="1" stop-color="rgb(70.133972%, 93.595886%, 40.229797%)" offset="0.105469"/><stop stop-opacity="1" stop-color="rgb(69.932556%, 93.363953%, 40.068054%)" offset="0.109375"/><stop stop-opacity="1" stop-color="rgb(69.729614%, 93.130493%, 39.904785%)" offset="0.113281"/><stop stop-opacity="1" stop-color="rgb(69.526672%, 92.89856%, 39.743042%)" offset="0.117188"/><stop stop-opacity="1" stop-color="rgb(69.325256%, 92.6651%, 39.579773%)" offset="0.121094"/><stop stop-opacity="1" stop-color="rgb(69.122314%, 92.431641%, 39.41803%)" offset="0.125"/><stop stop-opacity="1" stop-color="rgb(68.920898%, 92.199707%, 39.254761%)" offset="0.128906"/><stop stop-opacity="1" stop-color="rgb(68.717957%, 91.966248%, 39.093018%)" offset="0.132812"/><stop stop-opacity="1" stop-color="rgb(68.515015%, 91.734314%, 38.929749%)" offset="0.136719"/><stop stop-opacity="1" stop-color="rgb(68.313599%, 91.500854%, 38.768005%)" offset="0.140625"/><stop stop-opacity="1" stop-color="rgb(68.110657%, 91.268921%, 38.604736%)" offset="0.144531"/><stop stop-opacity="1" stop-color="rgb(67.909241%, 91.035461%, 38.442993%)" offset="0.148438"/><stop stop-opacity="1" stop-color="rgb(67.706299%, 90.802002%, 38.279724%)" offset="0.152344"/><stop stop-opacity="1" stop-color="rgb(67.503357%, 90.570068%, 38.117981%)" offset="0.15625"/><stop stop-opacity="1" stop-color="rgb(67.301941%, 90.336609%, 37.954712%)" offset="0.160156"/><stop stop-opacity="1" stop-color="rgb(67.098999%, 90.104675%, 37.792969%)" offset="0.164062"/><stop stop-opacity="1" stop-color="rgb(66.897583%, 89.871216%, 37.6297%)" offset="0.167969"/><stop stop-opacity="1" stop-color="rgb(66.694641%, 89.639282%, 37.467957%)" offset="0.171875"/><stop stop-opacity="1" stop-color="rgb(66.491699%, 89.405823%, 37.304688%)" offset="0.175781"/><stop stop-opacity="1" stop-color="rgb(66.290283%, 89.172363%, 37.142944%)" offset="0.179688"/><stop stop-opacity="1" stop-color="rgb(66.087341%, 88.94043%, 36.979675%)" offset="0.183594"/><stop stop-opacity="1" stop-color="rgb(65.884399%, 88.70697%, 36.817932%)" offset="0.1875"/><stop stop-opacity="1" stop-color="rgb(65.682983%, 88.475037%, 36.654663%)" offset="0.191406"/><stop stop-opacity="1" stop-color="rgb(65.480042%, 88.241577%, 36.49292%)" offset="0.195312"/><stop stop-opacity="1" stop-color="rgb(65.278625%, 88.009644%, 36.329651%)" offset="0.199219"/><stop stop-opacity="1" stop-color="rgb(65.075684%, 87.776184%, 36.167908%)" offset="0.203125"/><stop stop-opacity="1" stop-color="rgb(64.872742%, 87.542725%, 36.004639%)" offset="0.207031"/><stop stop-opacity="1" stop-color="rgb(64.671326%, 87.310791%, 35.842896%)" offset="0.210938"/><stop stop-opacity="1" stop-color="rgb(64.468384%, 87.077332%, 35.679626%)" offset="0.214844"/><stop stop-opacity="1" stop-color="rgb(64.266968%, 86.845398%, 35.517883%)" offset="0.21875"/><stop stop-opacity="1" stop-color="rgb(64.064026%, 86.611938%, 35.354614%)" offset="0.222656"/><stop stop-opacity="1" stop-color="rgb(63.861084%, 86.380005%, 35.192871%)" offset="0.226562"/><stop stop-opacity="1" stop-color="rgb(63.659668%, 86.146545%, 35.029602%)" offset="0.230469"/><stop stop-opacity="1" stop-color="rgb(63.456726%, 85.913086%, 34.867859%)" offset="0.234375"/><stop stop-opacity="1" stop-color="rgb(63.25531%, 85.681152%, 34.70459%)" offset="0.238281"/><stop stop-opacity="1" stop-color="rgb(63.052368%, 85.447693%, 34.542847%)" offset="0.242188"/><stop stop-opacity="1" stop-color="rgb(62.849426%, 85.215759%, 34.379578%)" offset="0.246094"/><stop stop-opacity="1" stop-color="rgb(62.64801%, 84.9823%, 34.217834%)" offset="0.25"/><stop stop-opacity="1" stop-color="rgb(62.445068%, 84.74884%, 34.054565%)" offset="0.253906"/><stop stop-opacity="1" stop-color="rgb(62.243652%, 84.516907%, 33.892822%)" offset="0.257812"/><stop stop-opacity="1" stop-color="rgb(62.04071%, 84.283447%, 33.729553%)" offset="0.261719"/><stop stop-opacity="1" stop-color="rgb(61.837769%, 84.051514%, 33.56781%)" offset="0.265625"/><stop stop-opacity="1" stop-color="rgb(61.636353%, 83.818054%, 33.404541%)" offset="0.269531"/><stop stop-opacity="1" stop-color="rgb(61.433411%, 83.586121%, 33.242798%)" offset="0.273438"/><stop stop-opacity="1" stop-color="rgb(61.230469%, 83.352661%, 33.079529%)" offset="0.277344"/><stop stop-opacity="1" stop-color="rgb(61.029053%, 83.119202%, 32.917786%)" offset="0.28125"/><stop stop-opacity="1" stop-color="rgb(60.826111%, 82.887268%, 32.754517%)" offset="0.285156"/><stop stop-opacity="1" stop-color="rgb(60.624695%, 82.653809%, 32.592773%)" offset="0.289062"/><stop stop-opacity="1" stop-color="rgb(60.421753%, 82.421875%, 32.429504%)" offset="0.292969"/><stop stop-opacity="1" stop-color="rgb(60.218811%, 82.188416%, 32.267761%)" offset="0.296875"/><stop stop-opacity="1" stop-color="rgb(60.017395%, 81.956482%, 32.104492%)" offset="0.300781"/><stop stop-opacity="1" stop-color="rgb(59.814453%, 81.723022%, 31.942749%)" offset="0.304688"/><stop stop-opacity="1" stop-color="rgb(59.613037%, 81.489563%, 31.77948%)" offset="0.308594"/><stop stop-opacity="1" stop-color="rgb(59.410095%, 81.257629%, 31.617737%)" offset="0.3125"/><stop stop-opacity="1" stop-color="rgb(59.207153%, 81.02417%, 31.454468%)" offset="0.316406"/><stop stop-opacity="1" stop-color="rgb(59.005737%, 80.792236%, 31.292725%)" offset="0.320312"/><stop stop-opacity="1" stop-color="rgb(58.802795%, 80.558777%, 31.129456%)" offset="0.324219"/><stop stop-opacity="1" stop-color="rgb(58.601379%, 80.326843%, 30.967712%)" offset="0.328125"/><stop stop-opacity="1" stop-color="rgb(58.398438%, 80.093384%, 30.804443%)" offset="0.332031"/><stop stop-opacity="1" stop-color="rgb(58.195496%, 79.859924%, 30.6427%)" offset="0.335938"/><stop stop-opacity="1" stop-color="rgb(57.99408%, 79.627991%, 30.479431%)" offset="0.339844"/><stop stop-opacity="1" stop-color="rgb(57.791138%, 79.394531%, 30.317688%)" offset="0.34375"/><stop stop-opacity="1" stop-color="rgb(57.589722%, 79.162598%, 30.154419%)" offset="0.347656"/><stop stop-opacity="1" stop-color="rgb(57.38678%, 78.929138%, 29.992676%)" offset="0.351562"/><stop stop-opacity="1" stop-color="rgb(57.183838%, 78.697205%, 29.829407%)" offset="0.355469"/><stop stop-opacity="1" stop-color="rgb(56.982422%, 78.463745%, 29.667664%)" offset="0.359375"/><stop stop-opacity="1" stop-color="rgb(56.77948%, 78.230286%, 29.504395%)" offset="0.363281"/><stop stop-opacity="1" stop-color="rgb(56.576538%, 77.998352%, 29.342651%)" offset="0.367188"/><stop stop-opacity="1" stop-color="rgb(56.375122%, 77.764893%, 29.179382%)" offset="0.371094"/><stop stop-opacity="1" stop-color="rgb(56.17218%, 77.532959%, 29.017639%)" offset="0.375"/><stop stop-opacity="1" stop-color="rgb(55.970764%, 77.2995%, 28.85437%)" offset="0.378906"/><stop stop-opacity="1" stop-color="rgb(55.767822%, 77.06604%, 28.692627%)" offset="0.382812"/><stop stop-opacity="1" stop-color="rgb(55.56488%, 76.834106%, 28.529358%)" offset="0.386719"/><stop stop-opacity="1" stop-color="rgb(55.363464%, 76.600647%, 28.367615%)" offset="0.390625"/><stop stop-opacity="1" stop-color="rgb(55.160522%, 76.368713%, 28.205872%)" offset="0.394531"/><stop stop-opacity="1" stop-color="rgb(54.959106%, 76.135254%, 28.042603%)" offset="0.398438"/><stop stop-opacity="1" stop-color="rgb(54.756165%, 75.90332%, 27.880859%)" offset="0.402344"/><stop stop-opacity="1" stop-color="rgb(54.553223%, 75.669861%, 27.71759%)" offset="0.40625"/><stop stop-opacity="1" stop-color="rgb(54.351807%, 75.436401%, 27.555847%)" offset="0.410156"/><stop stop-opacity="1" stop-color="rgb(54.148865%, 75.204468%, 27.392578%)" offset="0.414062"/><stop stop-opacity="1" stop-color="rgb(53.947449%, 74.971008%, 27.230835%)" offset="0.417969"/><stop stop-opacity="1" stop-color="rgb(53.744507%, 74.739075%, 27.067566%)" offset="0.421875"/><stop stop-opacity="1" stop-color="rgb(53.541565%, 74.505615%, 26.905823%)" offset="0.425781"/><stop stop-opacity="1" stop-color="rgb(53.340149%, 74.273682%, 26.742554%)" offset="0.429688"/><stop stop-opacity="1" stop-color="rgb(53.137207%, 74.040222%, 26.580811%)" offset="0.433594"/><stop stop-opacity="1" stop-color="rgb(52.935791%, 73.806763%, 26.417542%)" offset="0.4375"/><stop stop-opacity="1" stop-color="rgb(52.732849%, 73.574829%, 26.255798%)" offset="0.441406"/><stop stop-opacity="1" stop-color="rgb(52.529907%, 73.34137%, 26.092529%)" offset="0.445312"/><stop stop-opacity="1" stop-color="rgb(52.328491%, 73.109436%, 25.930786%)" offset="0.449219"/><stop stop-opacity="1" stop-color="rgb(52.125549%, 72.875977%, 25.767517%)" offset="0.453125"/><stop stop-opacity="1" stop-color="rgb(51.924133%, 72.644043%, 25.605774%)" offset="0.457031"/><stop stop-opacity="1" stop-color="rgb(51.721191%, 72.410583%, 25.442505%)" offset="0.460938"/><stop stop-opacity="1" stop-color="rgb(51.51825%, 72.177124%, 25.280762%)" offset="0.464844"/><stop stop-opacity="1" stop-color="rgb(51.316833%, 71.94519%, 25.117493%)" offset="0.46875"/><stop stop-opacity="1" stop-color="rgb(51.113892%, 71.711731%, 24.95575%)" offset="0.472656"/><stop stop-opacity="1" stop-color="rgb(50.91095%, 71.479797%, 24.79248%)" offset="0.476562"/><stop stop-opacity="1" stop-color="rgb(50.709534%, 71.246338%, 24.630737%)" offset="0.480469"/><stop stop-opacity="1" stop-color="rgb(50.506592%, 71.014404%, 24.467468%)" offset="0.484375"/><stop stop-opacity="1" stop-color="rgb(50.305176%, 70.780945%, 24.305725%)" offset="0.488281"/><stop stop-opacity="1" stop-color="rgb(50.102234%, 70.547485%, 24.142456%)" offset="0.492188"/><stop stop-opacity="1" stop-color="rgb(49.899292%, 70.315552%, 23.980713%)" offset="0.496094"/><stop stop-opacity="1" stop-color="rgb(49.697876%, 70.082092%, 23.817444%)" offset="0.5"/><stop stop-opacity="1" stop-color="rgb(49.494934%, 69.850159%, 23.655701%)" offset="0.503906"/><stop stop-opacity="1" stop-color="rgb(49.293518%, 69.616699%, 23.492432%)" offset="0.507812"/><stop stop-opacity="1" stop-color="rgb(49.090576%, 69.38324%, 23.330688%)" offset="0.511719"/><stop stop-opacity="1" stop-color="rgb(48.887634%, 69.151306%, 23.167419%)" offset="0.515625"/><stop stop-opacity="1" stop-color="rgb(48.686218%, 68.917847%, 23.005676%)" offset="0.519531"/><stop stop-opacity="1" stop-color="rgb(48.483276%, 68.685913%, 22.842407%)" offset="0.523438"/><stop stop-opacity="1" stop-color="rgb(48.28186%, 68.452454%, 22.680664%)" offset="0.527344"/><stop stop-opacity="1" stop-color="rgb(48.078918%, 68.22052%, 22.517395%)" offset="0.53125"/><stop stop-opacity="1" stop-color="rgb(47.875977%, 67.987061%, 22.355652%)" offset="0.535156"/><stop stop-opacity="1" stop-color="rgb(47.674561%, 67.753601%, 22.192383%)" offset="0.539062"/><stop stop-opacity="1" stop-color="rgb(47.471619%, 67.521667%, 22.03064%)" offset="0.542969"/><stop stop-opacity="1" stop-color="rgb(47.270203%, 67.288208%, 21.867371%)" offset="0.546875"/><stop stop-opacity="1" stop-color="rgb(47.067261%, 67.056274%, 21.705627%)" offset="0.550781"/><stop stop-opacity="1" stop-color="rgb(46.864319%, 66.822815%, 21.542358%)" offset="0.554688"/><stop stop-opacity="1" stop-color="rgb(46.662903%, 66.590881%, 21.380615%)" offset="0.558594"/><stop stop-opacity="1" stop-color="rgb(46.459961%, 66.357422%, 21.217346%)" offset="0.5625"/><stop stop-opacity="1" stop-color="rgb(46.257019%, 66.123962%, 21.055603%)" offset="0.566406"/><stop stop-opacity="1" stop-color="rgb(46.055603%, 65.892029%, 20.892334%)" offset="0.570312"/><stop stop-opacity="1" stop-color="rgb(45.852661%, 65.658569%, 20.730591%)" offset="0.574219"/><stop stop-opacity="1" stop-color="rgb(45.651245%, 65.426636%, 20.567322%)" offset="0.578125"/><stop stop-opacity="1" stop-color="rgb(45.448303%, 65.193176%, 20.405579%)" offset="0.582031"/><stop stop-opacity="1" stop-color="rgb(45.245361%, 64.961243%, 20.24231%)" offset="0.585938"/><stop stop-opacity="1" stop-color="rgb(45.043945%, 64.727783%, 20.080566%)" offset="0.589844"/><stop stop-opacity="1" stop-color="rgb(44.841003%, 64.494324%, 19.917297%)" offset="0.59375"/><stop stop-opacity="1" stop-color="rgb(44.639587%, 64.26239%, 19.755554%)" offset="0.597656"/><stop stop-opacity="1" stop-color="rgb(44.436646%, 64.028931%, 19.592285%)" offset="0.601562"/><stop stop-opacity="1" stop-color="rgb(44.233704%, 63.796997%, 19.430542%)" offset="0.605469"/><stop stop-opacity="1" stop-color="rgb(44.032288%, 63.563538%, 19.267273%)" offset="0.609375"/><stop stop-opacity="1" stop-color="rgb(43.829346%, 63.330078%, 19.10553%)" offset="0.613281"/><stop stop-opacity="1" stop-color="rgb(43.62793%, 63.098145%, 18.942261%)" offset="0.617188"/><stop stop-opacity="1" stop-color="rgb(43.424988%, 62.864685%, 18.780518%)" offset="0.621094"/><stop stop-opacity="1" stop-color="rgb(43.222046%, 62.632751%, 18.617249%)" offset="0.625"/><stop stop-opacity="1" stop-color="rgb(43.02063%, 62.399292%, 18.455505%)" offset="0.628906"/><stop stop-opacity="1" stop-color="rgb(42.817688%, 62.167358%, 18.292236%)" offset="0.632812"/><stop stop-opacity="1" stop-color="rgb(42.616272%, 61.933899%, 18.130493%)" offset="0.636719"/><stop stop-opacity="1" stop-color="rgb(42.41333%, 61.700439%, 17.967224%)" offset="0.640625"/><stop stop-opacity="1" stop-color="rgb(42.210388%, 61.468506%, 17.805481%)" offset="0.644531"/><stop stop-opacity="1" stop-color="rgb(42.008972%, 61.235046%, 17.642212%)" offset="0.648438"/><stop stop-opacity="1" stop-color="rgb(41.80603%, 61.003113%, 17.480469%)" offset="0.652344"/><stop stop-opacity="1" stop-color="rgb(41.604614%, 60.769653%, 17.3172%)" offset="0.65625"/><stop stop-opacity="1" stop-color="rgb(41.401672%, 60.53772%, 17.155457%)" offset="0.660156"/><stop stop-opacity="1" stop-color="rgb(41.19873%, 60.30426%, 16.992188%)" offset="0.664062"/><stop stop-opacity="1" stop-color="rgb(40.997314%, 60.070801%, 16.830444%)" offset="0.667969"/><stop stop-opacity="1" stop-color="rgb(40.794373%, 59.838867%, 16.667175%)" offset="0.671875"/><stop stop-opacity="1" stop-color="rgb(40.591431%, 59.605408%, 16.505432%)" offset="0.675781"/><stop stop-opacity="1" stop-color="rgb(40.390015%, 59.373474%, 16.342163%)" offset="0.679688"/><stop stop-opacity="1" stop-color="rgb(40.187073%, 59.140015%, 16.18042%)" offset="0.683594"/><stop stop-opacity="1" stop-color="rgb(39.985657%, 58.908081%, 16.017151%)" offset="0.6875"/><stop stop-opacity="1" stop-color="rgb(39.782715%, 58.674622%, 15.855408%)" offset="0.691406"/><stop stop-opacity="1" stop-color="rgb(39.579773%, 58.441162%, 15.692139%)" offset="0.695312"/><stop stop-opacity="1" stop-color="rgb(39.378357%, 58.209229%, 15.530396%)" offset="0.699219"/><stop stop-opacity="1" stop-color="rgb(39.175415%, 57.975769%, 15.367126%)" offset="0.703125"/><stop stop-opacity="1" stop-color="rgb(38.973999%, 57.743835%, 15.205383%)" offset="0.707031"/><stop stop-opacity="1" stop-color="rgb(38.771057%, 57.510376%, 15.042114%)" offset="0.710938"/><stop stop-opacity="1" stop-color="rgb(38.568115%, 57.278442%, 14.880371%)" offset="0.714844"/><stop stop-opacity="1" stop-color="rgb(38.366699%, 57.044983%, 14.717102%)" offset="0.71875"/><stop stop-opacity="1" stop-color="rgb(38.163757%, 56.811523%, 14.555359%)" offset="0.722656"/><stop stop-opacity="1" stop-color="rgb(37.962341%, 56.57959%, 14.39209%)" offset="0.726562"/><stop stop-opacity="1" stop-color="rgb(37.759399%, 56.34613%, 14.230347%)" offset="0.730469"/><stop stop-opacity="1" stop-color="rgb(37.556458%, 56.114197%, 14.067078%)" offset="0.734375"/><stop stop-opacity="1" stop-color="rgb(37.355042%, 55.880737%, 13.905334%)" offset="0.738281"/><stop stop-opacity="1" stop-color="rgb(37.1521%, 55.647278%, 13.742065%)" offset="0.742188"/><stop stop-opacity="1" stop-color="rgb(36.950684%, 55.415344%, 13.580322%)" offset="0.746094"/><stop stop-opacity="1" stop-color="rgb(36.747742%, 55.181885%, 13.417053%)" offset="0.75"/><stop stop-opacity="1" stop-color="rgb(36.5448%, 54.949951%, 13.25531%)" offset="0.753906"/><stop stop-opacity="1" stop-color="rgb(36.343384%, 54.716492%, 13.092041%)" offset="0.757812"/><stop stop-opacity="1" stop-color="rgb(36.140442%, 54.484558%, 12.930298%)" offset="0.761719"/><stop stop-opacity="1" stop-color="rgb(35.9375%, 54.251099%, 12.767029%)" offset="0.765625"/><stop stop-opacity="1" stop-color="rgb(35.736084%, 54.017639%, 12.605286%)" offset="0.769531"/><stop stop-opacity="1" stop-color="rgb(35.533142%, 53.785706%, 12.442017%)" offset="0.773438"/><stop stop-opacity="1" stop-color="rgb(35.331726%, 53.552246%, 12.280273%)" offset="0.777344"/><stop stop-opacity="1" stop-color="rgb(35.128784%, 53.320312%, 12.117004%)" offset="0.78125"/><stop stop-opacity="1" stop-color="rgb(34.925842%, 53.086853%, 11.955261%)" offset="0.785156"/><stop stop-opacity="1" stop-color="rgb(34.724426%, 52.854919%, 11.791992%)" offset="0.789062"/><stop stop-opacity="1" stop-color="rgb(34.521484%, 52.62146%, 11.630249%)" offset="0.792969"/><stop stop-opacity="1" stop-color="rgb(34.320068%, 52.388%, 11.46698%)" offset="0.796875"/><stop stop-opacity="1" stop-color="rgb(34.117126%, 52.156067%, 11.305237%)" offset="0.800781"/><stop stop-opacity="1" stop-color="rgb(33.914185%, 51.922607%, 11.141968%)" offset="0.804688"/><stop stop-opacity="1" stop-color="rgb(33.712769%, 51.690674%, 10.980225%)" offset="0.808594"/><stop stop-opacity="1" stop-color="rgb(33.509827%, 51.457214%, 10.816956%)" offset="0.8125"/><stop stop-opacity="1" stop-color="rgb(33.308411%, 51.225281%, 10.655212%)" offset="0.816406"/><stop stop-opacity="1" stop-color="rgb(33.105469%, 50.991821%, 10.491943%)" offset="0.820312"/><stop stop-opacity="1" stop-color="rgb(32.902527%, 50.758362%, 10.3302%)" offset="0.824219"/><stop stop-opacity="1" stop-color="rgb(32.701111%, 50.526428%, 10.166931%)" offset="0.828125"/><stop stop-opacity="1" stop-color="rgb(32.498169%, 50.292969%, 10.005188%)" offset="0.832031"/><stop stop-opacity="1" stop-color="rgb(32.296753%, 50.061035%, 9.841919%)" offset="0.835938"/><stop stop-opacity="1" stop-color="rgb(32.093811%, 49.827576%, 9.680176%)" offset="0.839844"/><stop stop-opacity="1" stop-color="rgb(31.890869%, 49.595642%, 9.516907%)" offset="0.84375"/><stop stop-opacity="1" stop-color="rgb(31.689453%, 49.362183%, 9.355164%)" offset="0.847656"/><stop stop-opacity="1" stop-color="rgb(31.486511%, 49.128723%, 9.191895%)" offset="0.851562"/><stop stop-opacity="1" stop-color="rgb(31.283569%, 48.89679%, 9.030151%)" offset="0.855469"/><stop stop-opacity="1" stop-color="rgb(31.082153%, 48.66333%, 8.866882%)" offset="0.859375"/><stop stop-opacity="1" stop-color="rgb(30.879211%, 48.431396%, 8.705139%)" offset="0.863281"/><stop stop-opacity="1" stop-color="rgb(30.677795%, 48.197937%, 8.54187%)" offset="0.867188"/><stop stop-opacity="1" stop-color="rgb(30.474854%, 47.964478%, 8.380127%)" offset="0.871094"/><stop stop-opacity="1" stop-color="rgb(30.271912%, 47.732544%, 8.216858%)" offset="0.875"/><stop stop-opacity="1" stop-color="rgb(30.070496%, 47.499084%, 8.055115%)" offset="0.878906"/><stop stop-opacity="1" stop-color="rgb(29.867554%, 47.267151%, 7.893372%)" offset="0.882812"/><stop stop-opacity="1" stop-color="rgb(29.666138%, 47.033691%, 7.730103%)" offset="0.886719"/><stop stop-opacity="1" stop-color="rgb(29.463196%, 46.801758%, 7.568359%)" offset="0.890625"/><stop stop-opacity="1" stop-color="rgb(29.260254%, 46.568298%, 7.40509%)" offset="0.894531"/><stop stop-opacity="1" stop-color="rgb(29.058838%, 46.334839%, 7.243347%)" offset="0.898438"/><stop stop-opacity="1" stop-color="rgb(28.855896%, 46.102905%, 7.080078%)" offset="0.902344"/><stop stop-opacity="1" stop-color="rgb(28.65448%, 45.869446%, 6.918335%)" offset="0.90625"/><stop stop-opacity="1" stop-color="rgb(28.451538%, 45.637512%, 6.755066%)" offset="0.910156"/><stop stop-opacity="1" stop-color="rgb(28.248596%, 45.404053%, 6.593323%)" offset="0.914062"/><stop stop-opacity="1" stop-color="rgb(28.04718%, 45.172119%, 6.430054%)" offset="0.917969"/><stop stop-opacity="1" stop-color="rgb(27.844238%, 44.93866%, 6.268311%)" offset="0.921875"/><stop stop-opacity="1" stop-color="rgb(27.642822%, 44.7052%, 6.105042%)" offset="0.925781"/><stop stop-opacity="1" stop-color="rgb(27.43988%, 44.473267%, 5.943298%)" offset="0.929688"/><stop stop-opacity="1" stop-color="rgb(27.236938%, 44.239807%, 5.780029%)" offset="0.933594"/><stop stop-opacity="1" stop-color="rgb(27.035522%, 44.007874%, 5.618286%)" offset="0.9375"/><stop stop-opacity="1" stop-color="rgb(26.832581%, 43.774414%, 5.455017%)" offset="0.941406"/><stop stop-opacity="1" stop-color="rgb(26.631165%, 43.54248%, 5.293274%)" offset="0.945312"/><stop stop-opacity="1" stop-color="rgb(26.428223%, 43.309021%, 5.130005%)" offset="0.949219"/><stop stop-opacity="1" stop-color="rgb(26.225281%, 43.075562%, 4.968262%)" offset="0.953125"/><stop stop-opacity="1" stop-color="rgb(26.023865%, 42.843628%, 4.804993%)" offset="0.957031"/><stop stop-opacity="1" stop-color="rgb(25.820923%, 42.610168%, 4.64325%)" offset="0.960938"/><stop stop-opacity="1" stop-color="rgb(25.617981%, 42.378235%, 4.47998%)" offset="0.964844"/><stop stop-opacity="1" stop-color="rgb(25.416565%, 42.144775%, 4.318237%)" offset="0.96875"/><stop stop-opacity="1" stop-color="rgb(25.213623%, 41.912842%, 4.154968%)" offset="0.972656"/><stop stop-opacity="1" stop-color="rgb(25.012207%, 41.679382%, 3.993225%)" offset="0.976562"/><stop stop-opacity="1" stop-color="rgb(24.809265%, 41.445923%, 3.829956%)" offset="0.980469"/><stop stop-opacity="1" stop-color="rgb(24.606323%, 41.213989%, 3.668213%)" offset="0.984375"/><stop stop-opacity="1" stop-color="rgb(24.404907%, 40.98053%, 3.504944%)" offset="0.988281"/><stop stop-opacity="1" stop-color="rgb(24.201965%, 40.748596%, 3.343201%)" offset="0.992188"/><stop stop-opacity="1" stop-color="rgb(24.000549%, 40.515137%, 3.179932%)" offset="0.996094"/><stop stop-opacity="1" stop-color="rgb(23.899841%, 40.39917%, 3.09906%)" offset="1"/></radialGradient><clipPath id="f22ddf3097"><path d="M 300.867188 650.648438 L 509.359375 650.648438 L 509.359375 707.648438 L 300.867188 707.648438 Z M 300.867188 650.648438 " clip-rule="nonzero"/></clipPath><clipPath id="4684377b49"><path d="M 329.492188 650.648438 L 480.503906 650.648438 C 488.097656 650.648438 495.375 653.664062 500.746094 659.03125 C 506.113281 664.398438 509.128906 671.679688 509.128906 679.269531 C 509.128906 686.863281 506.113281 694.144531 500.746094 699.511719 C 495.375 704.878906 488.097656 707.894531 480.503906 707.894531 L 329.492188 707.894531 C 321.902344 707.894531 314.621094 704.878906 309.253906 699.511719 C 303.882812 694.144531 300.867188 686.863281 300.867188 679.269531 C 300.867188 671.679688 303.882812 664.398438 309.253906 659.03125 C 314.621094 653.664062 321.902344 650.648438 329.492188 650.648438 Z M 329.492188 650.648438 " clip-rule="nonzero"/></clipPath></defs><rect x="-81" width="972" fill="#ffffff" y="-80.999999" height="971.999992" fill-opacity="1"/><rect x="-81" fill="url(#fbcee06872)" width="972" y="-80.999999" height="971.999992"/><path stroke-linecap="butt" transform="matrix(0.725769, 0, 0, 0.725769, 77.793912, 242.820769)" fill="none" stroke-linejoin="miter" d="M 69.192527 68.364336 C 69.192527 75.108258 67.529421 81.238608 64.208591 86.760766 C 60.882379 92.282924 56.436665 96.900869 50.866067 100.614601 C 53.799377 101.201263 56.339785 102.202356 58.492673 103.61788 C 60.640179 105.038786 62.421694 106.771861 63.8426 108.822487 C 65.258124 110.878496 66.334568 113.198233 67.06655 115.787081 C 67.798532 118.375929 68.164523 121.088568 68.164523 123.924998 C 68.164523 129.495596 66.87279 134.355741 64.27856 138.510816 C 61.689712 142.660508 58.341971 146.0836 54.240719 148.769328 C 50.134085 151.455056 45.564579 153.462624 40.532203 154.781268 C 35.499827 156.099912 30.48898 156.756543 25.505044 156.756543 C 22.770876 156.756543 20.036708 156.562783 17.297158 156.175263 C 14.56299 155.782361 11.974141 155.098819 9.530613 154.119255 C 8.647929 153.828615 7.915947 152.62838 7.329285 150.529314 C 6.742623 148.430248 6.279752 145.862929 5.93529 142.832739 C 5.59621 139.802549 5.327099 136.530159 5.133339 133.010186 C 4.934197 129.495596 4.788877 126.120944 4.691997 122.896994 C 4.595117 119.673044 4.546677 116.836614 4.546677 114.393086 C 4.546677 111.949558 4.546677 110.238011 4.546677 109.26383 C 4.546677 105.840737 4.546677 102.396116 4.546677 98.929966 C 4.546677 95.458434 4.643557 92.013813 4.837317 88.596103 C 4.837317 87.713419 4.864228 86.346335 4.912668 84.489469 C 4.961108 82.632603 5.009548 80.555066 5.057988 78.256857 C 5.106428 75.964031 5.203308 73.542032 5.348628 71.001624 C 5.49933 68.461216 5.69309 66.093039 5.93529 63.891711 C 6.182872 61.695765 6.521952 59.811988 6.963294 58.251144 C 7.404636 56.684918 7.915947 55.710736 8.502609 55.317834 C 10.752377 53.85387 13.244346 52.459875 15.978514 51.141231 C 18.712682 49.822587 21.549112 48.670791 24.482422 47.696609 C 27.41035 46.717045 30.34366 45.936623 33.27697 45.349961 C 36.21028 44.763299 38.992888 44.467277 41.630176 44.467277 C 45.247028 44.467277 48.74009 44.98397 52.114742 46.006592 C 55.484012 47.034596 58.417322 48.573911 60.90929 50.624537 C 63.401258 52.680546 65.403444 55.194043 66.92123 58.175793 C 68.433634 61.157543 69.192527 64.553724 69.192527 68.364336 Z M 44.859509 76.136262 C 44.859509 74.473156 44.342815 73.251392 43.320194 72.47097 C 42.292189 71.685166 40.946634 71.297646 39.28891 71.297646 C 37.916444 71.297646 36.479391 71.588286 34.961605 72.174948 C 33.449201 72.76161 32.152086 73.542032 31.075642 74.521596 C 30.785002 74.812236 30.515891 75.64648 30.273691 77.013564 C 30.026109 78.380648 29.832349 79.919963 29.687029 81.63151 C 29.536327 83.343056 29.439447 84.95234 29.391007 86.470126 C 29.342567 87.98253 29.321038 88.983623 29.321038 89.473405 C 29.321038 89.667165 29.321038 89.984716 29.321038 90.426058 C 29.321038 90.8674 29.342567 91.330271 29.391007 91.820053 C 29.439447 92.309835 29.514798 92.745795 29.611678 93.138697 C 29.708558 93.531599 29.853878 93.725359 30.05302 93.725359 C 31.710744 93.725359 33.42229 93.111786 35.182276 91.890022 C 36.942262 90.668258 38.530017 89.155854 39.945541 87.347428 C 41.361065 85.539002 42.534389 83.612167 43.465514 81.556159 C 44.391255 79.505533 44.859509 77.697106 44.859509 76.136262 Z M 44.272847 118.49972 C 44.272847 116.836614 43.686185 115.66329 42.51286 114.979748 C 41.339536 114.296206 40.020892 113.951744 38.551546 113.951744 C 37.184462 113.951744 35.742027 114.269295 34.229623 114.909779 C 32.711837 115.544881 31.468544 116.298392 30.48898 117.181076 C 30.19834 117.374836 29.977669 117.864618 29.832349 118.64504 C 29.687029 119.425462 29.584767 120.281235 29.536327 121.212359 C 29.487887 122.138101 29.439447 123.020785 29.391007 123.849647 C 29.342567 124.678509 29.321038 125.243642 29.321038 125.534282 C 29.321038 125.728042 29.321038 126.120944 29.321038 126.707606 C 29.321038 127.294268 29.342567 127.902459 29.391007 128.537561 C 29.439447 129.178045 29.536327 129.759325 29.687029 130.297547 C 29.832349 130.835769 30.00458 131.10488 30.19834 131.10488 C 31.565424 131.10488 33.08321 130.711978 34.740934 129.931556 C 36.40404 129.151134 37.943355 128.17157 39.358879 127.003628 C 40.774403 125.830304 41.947727 124.484749 42.878851 122.972345 C 43.804593 121.454559 44.272847 119.963684 44.272847 118.49972 Z M 147.326222 77.890866 C 147.326222 84.634789 145.759996 90.695169 142.632926 96.072007 C 139.505856 101.443463 135.350782 106.185199 130.173085 110.291834 C 131.739312 112.6331 133.348596 115.37265 135.011702 118.49972 C 136.674808 121.62679 138.160301 124.926091 139.484327 128.392241 C 140.802971 131.863773 141.874033 135.329923 142.708277 138.801456 C 143.537139 142.272988 143.95157 145.470027 143.95157 148.403337 C 143.95157 151.530407 143.198059 154.339926 141.680273 156.831894 C 140.167869 159.323862 137.60055 160.572537 133.983698 160.572537 C 130.953507 160.572537 128.34313 159.103191 126.141802 156.175263 C 123.940474 153.241953 121.986728 149.748892 120.280564 145.690698 C 118.569018 141.637886 117.002792 137.50434 115.587268 133.306208 C 114.171744 129.102694 112.826189 125.728042 111.555985 123.187634 C 109.795999 123.774296 108.084453 124.436309 106.426729 125.168291 C 104.763623 125.900273 103.052076 126.610726 101.29209 127.294268 C 101.19521 129.441774 101.028362 132.401995 100.780779 136.164168 C 100.538579 139.92634 100.000357 143.661601 99.171495 147.375333 C 98.337251 151.089065 97.093958 154.318397 95.430852 157.052565 C 93.767746 159.786733 91.47492 161.159199 88.54161 161.159199 C 85.31766 161.159199 82.825692 159.835173 81.065706 157.197885 C 79.30572 154.560597 78.062427 151.433527 77.325063 147.816675 C 76.593081 144.199823 76.17865 140.513002 76.08177 136.75083 C 75.98489 132.988657 75.93645 130.028436 75.93645 127.88093 C 75.93645 123.289896 76.03333 118.768831 76.22709 114.323117 C 76.42085 109.87202 76.523112 105.356337 76.523112 100.759921 C 76.523112 96.556407 76.447761 92.358275 76.302441 88.154761 C 76.151738 83.951247 76.08177 79.699292 76.08177 75.398898 C 76.08177 74.424716 76.08177 73.176041 76.08177 71.663637 C 76.08177 70.145851 76.151738 68.585007 76.302441 66.970341 C 76.447761 65.361057 76.619992 63.821742 76.813752 62.352396 C 77.007512 60.888432 77.351974 59.715108 77.841756 58.837806 C 78.815938 56.781798 81.038795 54.828052 84.510327 52.971186 C 87.981859 51.114319 91.792471 49.478124 95.942163 48.0626 C 100.097237 46.641694 104.155432 45.522192 108.111364 44.687948 C 112.067296 43.859086 115.027517 43.444655 116.981263 43.444655 C 121.965199 43.444655 126.362473 44.370397 130.173085 46.227263 C 133.983698 48.084129 137.159208 50.603009 139.699616 53.778519 C 142.240024 56.954029 144.150712 60.619321 145.420916 64.774395 C 146.69112 68.924087 147.326222 73.299832 147.326222 77.890866 Z M 120.205213 79.946875 C 120.205213 77.406467 119.618551 75.474249 118.445227 74.155605 C 117.271903 72.836961 115.366597 72.174948 112.729309 72.174948 C 110.775563 72.174948 108.794906 72.51941 106.79272 73.202952 C 104.790534 73.886494 102.955196 74.666916 101.29209 75.5496 C 101.684992 83.267705 101.830312 90.937369 101.733432 98.563975 C 103.784058 97.880433 105.888507 96.997749 108.036013 95.921305 C 110.188901 94.850243 112.164176 93.531599 113.972602 91.965373 C 115.781028 90.404529 117.271903 88.644543 118.445227 86.690797 C 119.618551 84.731669 120.205213 82.487283 120.205213 79.946875 Z M 226.482539 133.306208 C 226.482539 135.259954 226.310308 137.606603 225.971228 140.340771 C 225.626766 143.074939 224.970135 145.690698 223.990571 148.182666 C 223.016389 150.674634 221.692362 152.779082 220.034639 154.485246 C 218.371532 156.196792 216.175586 157.052565 213.436036 157.052565 C 209.819184 157.052565 207.106545 155.733921 205.303501 153.096633 C 203.495075 150.453963 202.19796 147.305364 201.417538 143.640072 C 200.637116 139.97478 200.168863 136.234136 200.023543 132.423524 C 199.878223 128.612912 199.754432 125.582722 199.657552 123.338336 C 192.62299 124.506278 185.679925 125.534282 178.839123 126.416966 C 178.645363 128.661352 178.230932 131.449342 177.59583 134.770172 C 176.960728 138.091002 175.981164 141.293424 174.66252 144.372054 C 173.343876 147.450684 171.63233 150.114883 169.533264 152.359269 C 167.434198 154.609037 164.866879 155.733921 161.836689 155.733921 C 159.49004 155.733921 157.660085 154.878148 156.341441 153.166602 C 155.022797 151.455056 154.016322 149.431341 153.33278 147.084693 C 152.649238 144.738045 152.234807 142.321428 152.089487 139.82946 C 151.944167 137.337492 151.868816 135.259954 151.868816 133.596848 C 151.868816 128.02625 152.310158 122.531003 153.18746 117.105725 C 154.064762 111.680447 155.092766 106.282079 156.26609 100.905241 C 156.852752 98.074193 157.633174 94.753363 158.612738 90.937369 C 159.58692 87.126757 160.787156 83.192354 162.20268 79.139542 C 163.618204 75.081347 165.28131 71.076975 167.186616 67.115661 C 169.091922 63.159729 171.266339 59.618228 173.709867 56.491158 C 176.153395 53.364088 178.941385 50.82368 182.068455 48.869934 C 185.195525 46.910805 188.661675 45.936623 192.472288 45.936623 C 196.18602 45.936623 199.415352 46.765485 202.14952 48.428591 C 204.883688 50.091698 207.278776 52.287644 209.334784 55.021812 C 211.38541 57.761362 213.096956 60.861521 214.46404 64.333053 C 215.831124 67.804585 216.977537 71.319175 217.908661 74.887587 C 218.834403 78.456 219.620208 81.949061 220.25531 85.366771 C 220.890412 88.789863 221.450163 91.820053 221.939945 94.457341 C 223.210149 100.808361 224.286593 107.234732 225.163895 113.736455 C 226.046579 120.232795 226.482539 126.756046 226.482539 133.306208 Z M 198.193588 97.681291 C 198.193588 96.507967 198.118237 94.581132 197.972917 91.890022 C 197.827597 89.204294 197.510046 86.518566 197.020264 83.827456 C 196.530482 81.141728 195.771589 78.746639 194.748967 76.647573 C 193.720963 74.543125 192.326968 73.493592 190.566981 73.493592 C 189.5928 73.493592 188.661675 74.155605 187.784373 75.474249 C 186.901689 76.792893 186.121267 78.456 185.437725 80.458186 C 184.754183 82.460372 184.14061 84.683229 183.60777 87.126757 C 183.069548 89.570285 182.601295 91.916933 182.213775 94.166701 C 181.820873 96.411087 181.530233 98.440184 181.331091 100.24861 C 181.137331 102.057036 180.992011 103.348769 180.895131 104.134573 C 186.756369 103.644791 192.520727 102.912809 198.193588 101.933245 Z M 321.328028 92.110693 C 321.328028 94.263581 321.231148 97.3153 321.037388 101.276614 C 320.838246 105.232546 320.472255 109.581381 319.934033 114.323117 C 319.395811 119.059471 318.6423 123.898087 317.662736 128.833583 C 316.688554 133.769079 315.41835 138.241705 313.852124 142.246077 C 312.285898 146.255831 310.380592 149.54975 308.136206 152.14398 C 305.886437 154.732828 303.200709 156.024561 300.073639 156.024561 C 297.140329 156.024561 294.454601 155.168788 292.011073 153.462624 C 289.567545 151.751078 287.366217 149.652012 285.412471 147.154662 C 283.458725 144.662694 281.747179 142.003877 280.283215 139.167447 C 278.819251 136.336399 277.597487 133.742168 276.617922 131.400902 C 274.567296 126.416966 272.511288 121.502999 270.460662 116.664383 C 268.410036 111.831149 266.45629 106.917181 264.599424 101.933245 L 264.599424 106.039879 C 264.599424 110.238011 264.572513 114.419997 264.524073 118.569689 C 264.475633 122.724763 264.158082 126.852926 263.57142 130.95956 C 263.37766 132.622666 263.156989 134.549501 262.909407 136.75083 C 262.667207 138.946775 262.301216 141.121193 261.811434 143.274081 C 261.321652 145.421587 260.616581 147.423773 259.685457 149.280639 C 258.759715 151.137505 257.51104 152.509971 255.950196 153.387273 C 255.067512 153.877055 254.260179 154.167695 253.528197 154.264575 C 252.796215 154.366837 251.988882 154.512157 251.11158 154.705917 L 250.670238 154.705917 C 248.425852 154.705917 246.515163 153.947024 244.954319 152.43462 C 243.388093 150.922216 242.069449 148.963088 240.998387 146.573382 C 239.921943 144.178294 239.06617 141.487184 238.431068 138.510816 C 237.795966 135.529065 237.306184 132.595755 236.967104 129.710885 C 236.622642 126.831397 236.401971 124.167198 236.305091 121.72367 C 236.208211 119.280142 236.159771 117.326396 236.159771 115.862432 C 236.159771 113.612664 236.256651 110.313363 236.450411 105.964528 C 236.649553 101.615694 237.063984 96.803989 237.699086 91.524031 C 238.334188 86.249455 239.16305 80.824177 240.191054 75.253578 C 241.213676 69.68298 242.559231 64.623693 244.222337 60.081099 C 245.880061 55.538505 247.88763 51.824773 250.228895 48.939902 C 252.575544 46.060414 255.315094 44.617979 258.442164 44.617979 C 261.472354 44.617979 264.179611 45.791303 266.574699 48.132569 C 268.969787 50.479217 271.095764 53.267208 272.95263 56.491158 C 274.809496 59.715108 276.375723 63.084378 277.645927 66.60435 C 278.916131 70.124322 279.987193 73.057632 280.869877 75.398898 C 282.532983 79.995315 284.142267 84.56482 285.708493 89.107414 C 287.269337 93.650008 288.787123 98.267953 290.251087 102.961249 C 290.347967 103.155009 290.541727 103.693231 290.837749 104.570533 C 291.128389 105.453217 291.472851 106.427399 291.865753 107.503843 C 292.253273 108.677168 292.743055 109.995812 293.329717 111.459776 C 293.329717 110.189571 293.302806 109.285358 293.254366 108.752519 C 293.205926 108.214297 293.184397 107.724514 293.184397 107.283172 C 293.184397 106.847213 293.184397 106.282079 293.184397 105.598537 C 293.184397 104.914995 293.184397 103.838551 293.184397 102.374587 C 293.087517 99.150637 293.012166 95.921305 292.963726 92.697355 C 292.915286 89.473405 292.888375 86.297895 292.888375 83.170825 C 292.888375 81.803741 292.915286 79.898435 292.963726 77.454907 C 293.012166 75.011378 293.157486 72.395619 293.405068 69.607629 C 293.647268 66.825021 294.013259 64.015502 294.503041 61.179072 C 294.992823 58.348024 295.697894 55.780705 296.629018 53.482496 C 297.55476 51.189671 298.728084 49.305893 300.143608 47.841929 C 301.564514 46.377965 303.297589 45.640601 305.348215 45.640601 C 307.791744 45.640601 309.896192 46.571725 311.650796 48.428591 C 313.410782 50.285458 314.880128 52.653635 316.053452 55.538505 C 317.221394 58.417993 318.152518 61.647325 318.83606 65.210355 C 319.519602 68.778767 320.057824 72.271828 320.450726 75.69492 C 320.838246 79.11263 321.085828 82.288141 321.182708 85.221451 C 321.279588 88.154761 321.328028 90.452969 321.328028 92.110693 Z M 406.496285 89.032063 C 406.496285 97.632851 404.736299 105.916088 401.221709 113.881775 C 397.701737 121.847461 392.986911 128.908934 387.071851 135.066195 C 381.162173 141.218073 374.272931 146.13204 366.404125 149.797332 C 358.535318 153.462624 350.257463 155.292579 341.559795 155.292579 L 341.263773 155.292579 C 339.503787 155.292579 338.061351 154.485246 336.94185 152.875962 C 335.816966 151.261296 334.864313 149.232199 334.083891 146.788671 C 333.298086 144.345143 332.711424 141.610975 332.323904 138.580785 C 331.931002 135.550594 331.640362 132.595755 331.44122 129.710885 C 331.24746 126.831397 331.15058 124.242549 331.15058 121.944341 C 331.15058 119.646133 331.15058 117.913058 331.15058 116.739734 C 331.15058 113.418904 331.19902 110.119603 331.2959 106.847213 C 331.39278 103.56944 331.5381 100.270139 331.737242 96.949309 C 331.737242 95.872865 331.807211 94.28511 331.957913 92.186044 C 332.103233 90.081596 332.275464 87.713419 332.469224 85.076131 C 332.662984 82.438843 332.910566 79.677764 333.201206 76.792893 C 333.497229 73.908023 333.81478 71.222295 334.153859 68.730327 C 334.498322 66.238359 334.837401 64.042413 335.181864 62.131725 C 335.520943 60.226419 335.940757 58.934686 336.425156 58.251144 C 337.69536 56.098256 339.654489 54.19295 342.291777 52.529843 C 344.929065 50.87212 347.787024 49.505036 350.865654 48.428591 C 353.944284 47.352147 357.071354 46.544814 360.246864 46.006592 C 363.422374 45.473752 366.183453 45.204641 368.530102 45.204641 C 374.978002 45.204641 380.575511 46.399494 385.317247 48.794582 C 390.053601 51.189671 394.014916 54.413621 397.190426 58.471815 C 400.365936 62.524627 402.712584 67.191012 404.224988 72.47097 C 405.742774 77.745546 406.496285 83.267705 406.496285 89.032063 Z M 381.872626 93.284017 C 381.872626 91.136511 381.479724 88.935183 380.699302 86.690797 C 379.913498 84.441029 378.815525 82.390403 377.400001 80.533537 C 375.984477 78.676671 374.272931 77.185795 372.270745 76.060911 C 370.263177 74.936027 368.04032 74.376276 365.596791 74.376276 C 363.546165 74.376276 361.447099 74.860676 359.294211 75.84024 C 358.804429 76.136262 358.368469 77.035093 357.975567 78.552879 C 357.582665 80.065283 357.265114 81.900621 357.022914 84.048127 C 356.780714 86.201015 356.560043 88.547663 356.360901 91.088071 C 356.167141 93.628479 356.04335 96.045096 355.99491 98.343304 C 355.94647 100.641512 355.89803 102.665227 355.84959 104.425213 C 355.80115 106.185199 355.774239 107.358524 355.774239 107.945186 C 355.774239 108.919367 355.774239 110.361803 355.774239 112.267109 C 355.774239 114.172415 355.84959 116.056192 355.99491 117.913058 C 356.145612 119.769924 356.312461 121.379208 356.511603 122.751674 C 356.705363 124.118758 357.049825 124.8023 357.534225 124.8023 C 360.467535 124.8023 363.373934 123.655887 366.258805 121.357679 C 369.143675 119.059471 371.754052 116.249952 374.1007 112.929122 C 376.447348 109.602909 378.325743 106.136759 379.746649 102.519907 C 381.162173 98.903055 381.872626 95.824425 381.872626 93.284017 Z M 463.816933 55.463154 C 463.816933 57.32002 463.39712 58.983126 462.568258 60.44709 C 461.739396 61.916436 460.636041 63.159729 459.268957 64.187733 C 457.901873 65.210355 456.389469 66.066128 454.726363 66.74967 C 453.063256 67.433212 451.453973 67.922994 449.887746 68.219016 C 449.693986 79.263333 449.279555 89.914747 448.644453 100.173259 C 448.009351 110.437154 447.002876 121.040128 445.635792 131.987564 L 446.518476 131.987564 C 448.07932 131.987564 449.618635 132.154413 451.136422 132.498875 C 452.648826 132.837955 454.01591 133.424617 455.237674 134.258861 C 456.459438 135.087723 457.439002 136.115728 458.170984 137.337492 C 458.902966 138.559256 459.268957 140.050131 459.268957 141.804735 C 459.268957 144.054503 458.563886 146.008249 457.14298 147.671355 C 455.727456 149.334461 453.87059 150.749985 451.572381 151.923309 C 449.279555 153.096633 446.712236 154.070815 443.875806 154.851237 C 441.044758 155.637041 438.208328 156.245232 435.37728 156.686574 C 432.54085 157.127916 429.855122 157.445467 427.314714 157.639227 C 424.774306 157.832987 422.718297 157.929867 421.157453 157.929867 C 419.984129 157.929867 418.541694 157.881427 416.830148 157.784547 C 415.123984 157.687667 413.509318 157.391645 411.996914 156.907245 C 410.479128 156.417463 409.187395 155.685481 408.110951 154.705917 C 407.034507 153.731735 406.496285 152.407709 406.496285 150.749985 C 406.496285 148.693977 406.910716 146.864022 407.74496 145.249356 C 408.573822 143.640072 409.671795 142.197637 411.044261 140.927433 C 412.411345 139.657229 413.95066 138.629224 415.656824 137.848803 C 417.36837 137.068381 419.106827 136.481719 420.861431 136.088816 C 421.544973 130.711978 422.180075 125.362051 422.766737 120.039035 C 423.353399 114.710637 423.746302 109.31227 423.940061 103.838551 C 424.139204 98.267953 424.332964 92.772706 424.526724 87.347428 C 424.725866 81.92215 424.919626 76.475342 425.113386 71.001624 C 424.429844 71.098504 423.794742 71.173855 423.208079 71.222295 C 422.621417 71.270735 422.083195 71.297646 421.598796 71.297646 C 420.226329 71.297646 418.762365 71.146944 417.196139 70.856304 C 415.635295 70.565664 414.171331 70.048971 412.798865 69.316989 C 411.431781 68.585007 410.285368 67.680794 409.354244 66.60435 C 408.428502 65.527906 407.965631 64.160822 407.965631 62.503098 C 407.965631 59.176886 409.354244 56.442718 412.142234 54.28983 C 414.924842 52.142324 418.251054 50.479217 422.110107 49.305893 C 425.969159 48.132569 429.903562 47.330618 433.907934 46.889276 C 437.917688 46.447934 441.141638 46.227263 443.585166 46.227263 C 444.95225 46.227263 446.760676 46.324143 449.010444 46.523285 C 451.25483 46.717045 453.477687 47.158387 455.679016 47.841929 C 457.880344 48.525471 459.78565 49.456596 461.394934 50.624537 C 463.0096 51.797861 463.816933 53.412528 463.816933 55.463154 Z M 551.181136 92.110693 C 551.181136 94.263581 551.084256 97.3153 550.890496 101.276614 C 550.696736 105.232546 550.330745 109.581381 549.792523 114.323117 C 549.254301 119.059471 548.495408 123.898087 547.515844 128.833583 C 546.541662 133.769079 545.271458 138.241705 543.705232 142.246077 C 542.144388 146.255831 540.239082 149.54975 537.989313 152.14398 C 535.744928 154.732828 533.053817 156.024561 529.926747 156.024561 C 526.993437 156.024561 524.307709 155.168788 521.864181 153.462624 C 519.420653 151.751078 517.224707 149.652012 515.265579 147.154662 C 513.311833 144.662694 511.605669 142.003877 510.136322 139.167447 C 508.672358 136.336399 507.450594 133.742168 506.47103 131.400902 C 504.420404 126.416966 502.369778 121.502999 500.31377 116.664383 C 498.263144 111.831149 496.309398 106.917181 494.452532 101.933245 L 494.452532 106.039879 C 494.452532 110.238011 494.425621 114.419997 494.377181 118.569689 C 494.328741 122.724763 494.01119 126.852926 493.424528 130.95956 C 493.230768 132.622666 493.010097 134.549501 492.767897 136.75083 C 492.520315 138.946775 492.154324 141.121193 491.664542 143.274081 C 491.180142 145.421587 490.469689 147.423773 489.543947 149.280639 C 488.612823 151.137505 487.36953 152.509971 485.803304 153.387273 C 484.926002 153.877055 484.118669 154.167695 483.386687 154.264575 C 482.649322 154.366837 481.847372 154.512157 480.964687 154.705917 L 480.523345 154.705917 C 478.278959 154.705917 476.373653 153.947024 474.807427 152.43462 C 473.246583 150.922216 471.927939 148.963088 470.851495 146.573382 C 469.775051 144.178294 468.919278 141.487184 468.284176 138.510816 C 467.649074 135.529065 467.159292 132.595755 466.820212 129.710885 C 466.47575 126.831397 466.255079 124.167198 466.158199 121.72367 C 466.061319 119.280142 466.012879 117.326396 466.012879 115.862432 C 466.012879 113.612664 466.109759 110.313363 466.308901 105.964528 C 466.502661 101.615694 466.917092 96.803989 467.552194 91.524031 C 468.187296 86.249455 469.016158 80.824177 470.044162 75.253578 C 471.072166 69.68298 472.412339 64.623693 474.075445 60.081099 C 475.738551 55.538505 477.740737 51.824773 480.087386 48.939902 C 482.434034 46.060414 485.168202 44.617979 488.295272 44.617979 C 491.325462 44.617979 494.038101 45.791303 496.433189 48.132569 C 498.822895 50.479217 500.948872 53.267208 502.805738 56.491158 C 504.662604 59.715108 506.22883 63.084378 507.499034 66.60435 C 508.769238 70.124322 509.845683 73.057632 510.722984 75.398898 C 512.386091 79.995315 513.995375 84.56482 515.561601 89.107414 C 517.122445 93.650008 518.640231 98.267953 520.104195 102.961249 C 520.201075 103.155009 520.400217 103.693231 520.690857 104.570533 C 520.986879 105.453217 521.325959 106.427399 521.718861 107.503843 C 522.111763 108.677168 522.596163 109.995812 523.182825 111.459776 C 523.182825 110.189571 523.161296 109.285358 523.112856 108.752519 C 523.064416 108.214297 523.037505 107.724514 523.037505 107.283172 C 523.037505 106.847213 523.037505 106.282079 523.037505 105.598537 C 523.037505 104.914995 523.037505 103.838551 523.037505 102.374587 C 522.940625 99.150637 522.865274 95.921305 522.816834 92.697355 C 522.768394 89.473405 522.746865 86.297895 522.746865 83.170825 C 522.746865 81.803741 522.768394 79.898435 522.816834 77.454907 C 522.865274 75.011378 523.010594 72.395619 523.258176 69.607629 C 523.500376 66.825021 523.866367 64.015502 524.356149 61.179072 C 524.845931 58.348024 525.556384 55.780705 526.482126 53.482496 C 527.41325 51.189671 528.581192 49.305893 530.002098 47.841929 C 531.417622 46.377965 533.150697 45.640601 535.206705 45.640601 C 537.650234 45.640601 539.7493 46.571725 541.509286 48.428591 C 543.269272 50.285458 544.733236 52.653635 545.90656 55.538505 C 547.079884 58.417993 548.005626 61.647325 548.689168 65.210355 C 549.37271 68.778767 549.910932 72.271828 550.303834 75.69492 C 550.696736 79.11263 550.938936 82.288141 551.035816 85.221451 C 551.132696 88.154761 551.181136 90.452969 551.181136 92.110693 Z M 626.532223 119.818364 C 625.649538 124.215638 624.260926 128.785143 622.355619 133.526879 C 620.444931 138.263233 618.006785 142.590539 615.025035 146.498031 C 612.043285 150.405523 608.501784 153.607944 604.39515 156.099912 C 600.288515 158.59188 595.600601 159.835173 590.320643 159.835173 C 586.413151 159.835173 582.893179 159.054751 579.766109 157.493907 C 576.639039 155.927681 573.807991 153.828615 571.267583 151.185945 C 568.727175 148.548657 566.525846 145.518467 564.66898 142.100757 C 562.812114 138.677664 561.272799 135.136163 560.051035 131.470871 C 558.829271 127.805579 557.925058 124.167198 557.338396 120.550346 C 556.751734 116.933494 556.461094 113.564224 556.461094 110.437154 C 556.461094 106.039879 556.875525 101.325054 557.704387 96.287296 C 558.538631 91.25492 559.781924 86.270984 561.44503 81.335487 C 563.108136 76.399991 565.207202 71.663637 567.74761 67.115661 C 570.288019 62.573067 573.291298 58.568695 576.76283 55.097163 C 580.234362 51.631013 584.141854 48.843022 588.490688 46.743956 C 592.839522 44.639508 597.699667 43.589975 603.076506 43.589975 C 606.494216 43.589975 609.675108 44.251988 612.603036 45.570632 C 615.536346 46.889276 618.076754 48.649263 620.229642 50.845208 C 622.377148 53.046537 624.061783 55.662296 625.283547 58.687104 C 626.505311 61.717294 627.118885 64.892804 627.118885 68.219016 L 627.118885 69.53766 C 627.118885 71.297646 627.043534 73.472063 626.898214 76.060911 C 626.752894 78.649759 626.28464 81.120199 625.504218 83.461465 C 624.723796 85.808113 623.550472 87.83721 621.984246 89.548756 C 620.423402 91.25492 618.222074 92.110693 615.391026 92.110693 C 611.967934 92.110693 609.379086 91.330271 607.6191 89.764045 C 605.859114 88.203201 604.981812 85.614353 604.981812 81.997501 C 604.981812 80.630417 605.030252 79.263333 605.127132 77.890866 C 605.224012 76.523782 605.277834 75.156698 605.277834 73.789614 C 605.277834 71.733606 604.933372 70.145851 604.24983 69.026349 C 603.566288 67.901465 602.145382 67.336332 599.997876 67.336332 C 597.554347 67.336332 595.358402 68.122136 593.399273 69.68298 C 591.445527 71.249206 589.733981 73.299832 588.270017 75.84024 C 586.806053 78.380648 585.535849 81.265519 584.459405 84.489469 C 583.382961 87.713419 582.505659 90.96428 581.822117 94.23667 C 581.138575 97.50906 580.648793 100.663041 580.352771 103.693231 C 580.062131 106.723421 579.916811 109.31227 579.916811 111.459776 C 579.916811 113.219762 580.013691 115.248859 580.207451 117.547067 C 580.401211 119.839893 580.821024 122.041221 581.456126 124.140287 C 582.091228 126.244735 583.043881 128.02625 584.314085 129.495596 C 585.584289 130.95956 587.242013 131.691542 589.298021 131.691542 C 592.812611 131.691542 595.649041 130.593569 597.796547 128.392241 C 599.949436 126.196295 601.4134 123.386776 602.199204 119.963684 C 600.826738 119.769924 599.486565 119.452373 598.167921 119.011031 C 596.843894 118.569689 595.62213 117.934587 594.502628 117.105725 C 593.377744 116.276863 592.473531 115.248859 591.789989 114.027095 C 591.106447 112.805331 590.761985 111.362896 590.761985 109.705172 C 590.761985 106.674982 591.789989 104.301422 593.840615 102.595258 C 595.891241 100.883712 598.313241 99.586597 601.095849 98.709295 C 603.883839 97.826611 606.741798 97.26686 609.675108 97.02466 C 612.603036 96.777078 614.949684 96.658669 616.70967 96.658669 C 617.979874 96.658669 619.83674 96.755549 622.280268 96.949309 C 624.723796 97.143069 627.140413 97.562882 629.535502 98.197984 C 631.93059 98.833086 634.008127 99.737299 635.768113 100.905241 C 637.522717 102.078565 638.405401 103.596351 638.405401 105.453217 C 638.405401 109.16695 637.404308 112.363989 635.402122 115.055099 C 633.394554 117.740827 630.439715 119.328582 626.532223 119.818364 Z M 626.532223 119.818364 " stroke="#ffffff" stroke-width="3.189923" stroke-opacity="1" stroke-miterlimit="4"/><g fill="#ffffff" fill-opacity="1"><g transform="translate(583.384069, 352.138172)"><g><path d="M 2.890625 0 L 2.890625 -82.59375 L 18.84375 -82.59375 L 18.84375 0 Z M 2.890625 0 "/></g></g></g><g fill="#ffffff" fill-opacity="1"><g transform="translate(605.213105, 352.138172)"><g><path d="M 23.265625 0.765625 C 15.765625 0.765625 10.347656 -1.09375 7.015625 -4.8125 C 3.679688 -8.53125 2.015625 -14.519531 2.015625 -22.78125 L 2.015625 -30.859375 L 18.265625 -30.859375 L 18.265625 -20.578125 C 18.265625 -16.472656 19.582031 -14.421875 22.21875 -14.421875 C 23.6875 -14.421875 24.707031 -14.851562 25.28125 -15.71875 C 25.863281 -16.582031 26.15625 -18.039062 26.15625 -20.09375 C 26.15625 -22.789062 25.832031 -25.019531 25.1875 -26.78125 C 24.550781 -28.539062 23.734375 -30.015625 22.734375 -31.203125 C 21.742188 -32.390625 19.96875 -34.234375 17.40625 -36.734375 L 10.28125 -43.84375 C 4.769531 -49.226562 2.015625 -55.191406 2.015625 -61.734375 C 2.015625 -68.785156 3.632812 -74.15625 6.875 -77.84375 C 10.113281 -81.53125 14.84375 -83.375 21.0625 -83.375 C 28.5 -83.375 33.847656 -81.398438 37.109375 -77.453125 C 40.378906 -73.515625 42.015625 -67.34375 42.015625 -58.9375 L 25.1875 -58.9375 L 25.09375 -64.609375 C 25.09375 -65.703125 24.785156 -66.566406 24.171875 -67.203125 C 23.566406 -67.847656 22.722656 -68.171875 21.640625 -68.171875 C 20.359375 -68.171875 19.394531 -67.816406 18.75 -67.109375 C 18.101562 -66.410156 17.78125 -65.453125 17.78125 -64.234375 C 17.78125 -61.535156 19.320312 -58.742188 22.40625 -55.859375 L 32.015625 -46.640625 C 34.265625 -44.453125 36.125 -42.378906 37.59375 -40.421875 C 39.070312 -38.472656 40.257812 -36.164062 41.15625 -33.5 C 42.050781 -30.84375 42.5 -27.691406 42.5 -24.046875 C 42.5 -15.898438 41.007812 -9.726562 38.03125 -5.53125 C 35.050781 -1.332031 30.128906 0.765625 23.265625 0.765625 Z M 23.265625 0.765625 "/></g></g></g><g fill="#ffffff" fill-opacity="1"><g transform="translate(95.849353, 467.341134)"><g><path d="M 2.890625 0 L 2.890625 -82.609375 L 18.84375 -82.609375 L 18.84375 0 Z M 2.890625 0 "/></g></g></g><g fill="#ffffff" fill-opacity="1"><g transform="translate(117.679678, 467.341134)"><g><path d="M 3.65625 -82.609375 L 26.453125 -82.609375 C 32.347656 -82.609375 36.769531 -80.972656 39.71875 -77.703125 C 42.664062 -74.429688 44.171875 -69.59375 44.234375 -63.1875 L 44.4375 -24.53125 C 44.5 -16.382812 43.085938 -10.257812 40.203125 -6.15625 C 37.316406 -2.050781 32.539062 0 25.875 0 L 3.65625 0 Z M 23.171875 -14.625 C 26.191406 -14.625 27.703125 -16.097656 27.703125 -19.046875 L 27.703125 -61.640625 C 27.703125 -63.503906 27.554688 -64.898438 27.265625 -65.828125 C 26.972656 -66.753906 26.441406 -67.378906 25.671875 -67.703125 C 24.910156 -68.023438 23.726562 -68.1875 22.125 -68.1875 L 20.296875 -68.1875 L 20.296875 -14.625 Z M 23.171875 -14.625 "/></g></g></g><g fill="#ffffff" fill-opacity="1"><g transform="translate(165.090922, 467.341134)"><g><path d="M 3.65625 0 L 3.65625 -82.609375 L 36.734375 -82.609375 L 36.734375 -66.640625 L 20.484375 -66.640625 L 20.484375 -50.59375 L 36.0625 -50.59375 L 36.0625 -35 L 20.484375 -35 L 20.484375 -16.0625 L 37.796875 -16.0625 L 37.796875 0 Z M 3.65625 0 "/></g></g></g><g fill="#ffffff" fill-opacity="1"><g transform="translate(204.71249, 467.341134)"><g><path d="M 3.65625 0 L 3.65625 -82.609375 L 20.671875 -82.609375 L 28.28125 -43.078125 L 28.28125 -82.609375 L 44.234375 -82.609375 L 44.234375 0 L 28.078125 0 L 19.8125 -41.359375 L 19.8125 0 Z M 3.65625 0 "/></g></g></g><g fill="#ffffff" fill-opacity="1"><g transform="translate(252.604576, 467.341134)"><g><path d="M 10.765625 0 L 10.765625 -66.75 L 0.96875 -66.75 L 0.96875 -82.609375 L 37.125 -82.609375 L 37.125 -66.75 L 27.3125 -66.75 L 27.3125 0 Z M 10.765625 0 "/></g></g></g><g fill="#ffffff" fill-opacity="1"><g transform="translate(290.68744, 467.341134)"><g><path d="M 2.890625 0 L 2.890625 -82.609375 L 18.84375 -82.609375 L 18.84375 0 Z M 2.890625 0 "/></g></g></g><g fill="#ffffff" fill-opacity="1"><g transform="translate(312.517765, 467.341134)"><g><path d="M 10.765625 0 L 10.765625 -66.75 L 0.96875 -66.75 L 0.96875 -82.609375 L 37.125 -82.609375 L 37.125 -66.75 L 27.3125 -66.75 L 27.3125 0 Z M 10.765625 0 "/></g></g></g><g fill="#ffffff" fill-opacity="1"><g transform="translate(350.600618, 467.341134)"><g><path d="M 13.65625 0 L 13.65625 -27.21875 L 0.484375 -82.609375 L 16.828125 -82.609375 L 21.453125 -54.625 L 26.0625 -82.609375 L 42.40625 -82.609375 L 29.234375 -27.21875 L 29.234375 0 Z M 13.65625 0 "/></g></g></g><path stroke-linecap="butt" transform="matrix(0.789619, 0, 0, 0.789619, 198.046429, 338.676857)" fill="none" stroke-linejoin="miter" d="M 359.024458 92.111858 C 359.024458 94.263805 358.930464 97.316106 358.732584 101.27371 C 358.539651 105.231313 358.173573 109.57973 357.634349 114.31896 C 357.095126 119.05819 356.338234 123.896361 355.363674 128.833471 C 354.384167 133.770581 353.112787 138.237726 351.549534 142.2448 C 349.986281 146.251873 348.081684 149.551525 345.835744 152.143755 C 343.584857 154.731039 340.898634 156.027154 337.772127 156.027154 C 334.838553 156.027154 332.15233 155.171322 329.70851 153.459659 C 327.26469 151.752942 325.06822 149.650465 323.114153 147.157175 C 321.155139 144.663885 319.448423 142.002397 317.979163 139.167763 C 316.514849 136.33313 315.292939 133.745846 314.318379 131.400966 C 312.265373 126.414386 310.212366 121.502011 308.159359 116.66384 C 306.106352 111.830617 304.152285 106.918242 302.297159 101.931661 L 302.297159 106.037675 C 302.297159 110.242629 302.272424 114.4179 302.222954 118.573384 C 302.173484 122.723921 301.856875 126.854669 301.268182 130.960683 C 301.075249 132.617929 300.852634 134.552208 300.61023 136.748678 C 300.367827 138.950095 299.996802 141.12183 299.511995 143.273777 C 299.022242 145.420777 298.31482 147.424313 297.384784 149.284387 C 296.454747 151.139514 295.208102 152.509834 293.644848 153.385453 C 292.769229 153.875207 291.962867 154.16708 291.225763 154.26602 C 290.493607 154.36496 289.687245 154.51337 288.811625 154.706304 L 288.371342 154.706304 C 286.120455 154.706304 284.215858 153.949412 282.652605 152.435629 C 281.089351 150.921845 279.768501 148.962832 278.695001 146.573429 C 277.621501 144.179078 276.76567 141.487908 276.127506 138.509811 C 275.494289 135.526768 275.004536 132.598141 274.663193 129.714038 C 274.321849 126.829934 274.099234 124.168446 274.005241 121.724626 C 273.906301 119.280806 273.856831 117.326739 273.856831 115.862426 C 273.856831 113.611539 273.955771 110.311887 274.148704 105.96347 C 274.346584 101.615053 274.762133 96.801618 275.395349 91.528111 C 276.033513 86.249658 276.859663 80.822794 277.888639 75.252467 C 278.912669 69.68214 280.258255 64.626302 281.920448 60.080005 C 283.582641 55.538655 285.586178 51.823455 287.931058 48.939351 C 290.275938 46.060195 293.011632 44.615669 296.138138 44.615669 C 299.170652 44.615669 301.881611 45.788109 304.275961 48.132989 C 306.670311 50.477869 308.792576 53.263033 310.652649 56.48848 C 312.507776 59.713926 314.071029 63.087783 315.342409 66.605104 C 316.613789 70.122424 317.687289 73.055997 318.567856 75.400877 C 320.23005 79.991697 321.842773 84.562729 323.406026 89.109026 C 324.96928 93.650376 326.483063 98.270878 327.947376 102.960638 C 328.046316 103.153572 328.244197 103.692795 328.53607 104.573362 C 328.827943 105.453929 329.169286 106.428488 329.5601 107.501988 C 329.950913 108.679375 330.440667 109.995278 331.02936 111.464539 C 331.02936 110.193159 331.004625 109.287857 330.955155 108.748633 C 330.905685 108.214357 330.88095 107.724604 330.88095 107.28432 C 330.88095 106.844037 330.88095 106.285025 330.88095 105.597392 C 330.88095 104.914705 330.88095 103.841205 330.88095 102.371945 C 330.78201 99.146498 330.707805 95.921051 330.663282 92.700551 C 330.613812 89.475105 330.589077 86.299128 330.589077 83.167674 C 330.589077 81.802301 330.613812 79.897704 330.663282 77.453884 C 330.707805 75.010064 330.856215 72.393099 331.098618 69.607935 C 331.345968 66.822772 331.712047 64.01782 332.2018 61.183187 C 332.686606 58.348553 333.398975 55.781058 334.324065 53.485648 C 335.254102 51.190238 336.426542 49.305429 337.846332 47.841116 C 339.261175 46.376803 340.997574 45.644646 343.050581 45.644646 C 345.489454 45.644646 347.591931 46.569736 349.353064 48.42981 C 351.109251 50.284936 352.578511 52.654551 353.750951 55.538655 C 354.923391 58.422758 355.848481 61.643258 356.536114 65.214995 C 357.218801 68.781785 357.758024 72.27437 358.148838 75.69275 C 358.539651 79.116077 358.782054 82.292054 358.880994 85.220681 C 358.979935 88.154254 359.024458 90.449664 359.024458 92.111858 Z M 402.271169 159.836347 C 396.310029 159.836347 391.130516 158.347299 386.732629 155.364255 C 382.334742 152.386159 378.693747 148.379085 375.809643 143.347982 C 372.930487 138.311931 370.77854 132.474466 369.35875 125.830639 C 367.943906 119.181866 367.236485 112.196695 367.236485 104.865235 C 367.236485 98.023528 367.993376 91.087828 369.50716 84.048241 C 371.020943 77.013601 373.341088 70.661647 376.472542 64.99238 C 379.599049 59.323113 383.556652 54.682823 388.345352 51.066563 C 393.134052 47.450303 398.852789 45.644646 405.496616 45.644646 C 411.94751 45.644646 417.344692 47.376098 421.693108 50.848895 C 426.041525 54.316745 429.514322 58.813572 432.101606 64.334429 C 434.693836 69.855285 436.548962 76.034094 437.671932 82.875801 C 438.794902 89.717508 439.358861 96.559215 439.358861 103.400922 C 439.358861 111.024255 438.601969 118.232041 437.088186 125.024278 C 435.569456 131.816515 433.274046 137.797443 430.197009 142.981903 C 427.119972 148.161417 423.256362 152.262484 418.616072 155.294997 C 413.975782 158.322564 408.524183 159.836347 402.271169 159.836347 Z M 404.032303 78.037631 C 402.172229 78.037631 400.584241 78.774734 399.263391 80.239047 C 397.947488 81.703361 396.849253 83.632692 395.968686 86.027043 C 395.088119 88.421393 394.454903 91.112563 394.064089 94.09066 C 393.673276 97.073703 393.475396 100.076535 393.475396 103.104101 C 393.475396 106.527428 393.693064 109.945808 394.133347 113.369135 C 394.573631 116.787515 395.236529 119.864552 396.112149 122.605193 C 396.992716 125.340886 398.090951 127.537356 399.411801 129.199549 C 400.732651 130.861743 402.320639 131.692839 404.175766 131.692839 C 406.327713 131.692839 408.034429 130.61934 409.30581 128.467393 C 410.57719 126.315446 411.581432 123.728163 412.313588 120.695649 C 413.045745 117.668082 413.535498 114.541575 413.777901 111.316129 C 414.020305 108.090682 414.14398 105.404458 414.14398 103.252512 C 414.14398 100.615758 413.975782 97.830595 413.629491 94.897021 C 413.288148 91.963448 412.729137 89.252489 411.94751 86.759199 C 411.165883 84.270856 410.136906 82.193114 408.865526 80.530921 C 407.599093 78.868727 405.98637 78.037631 404.032303 78.037631 Z M 511.040954 54.875756 C 511.040954 57.319576 510.091129 59.545728 508.181585 61.549265 C 506.276988 63.552802 503.981578 65.308988 501.295355 66.822772 C 498.604185 68.341502 495.843756 69.588147 493.009123 70.562707 C 490.174489 71.542214 487.829609 72.2249 485.974483 72.615714 C 485.192856 80.140107 484.579427 87.639766 484.144091 95.119636 C 483.703808 102.59456 483.481193 110.094219 483.481193 117.618612 C 483.481193 121.625686 483.580133 125.583289 483.778013 129.491423 C 483.970946 133.404503 484.069886 137.312636 484.069886 141.22077 C 484.069886 142.981903 483.896741 144.911235 483.555398 147.008765 C 483.214054 149.111242 482.625361 151.090043 481.794264 152.950117 C 480.968114 154.805244 479.815462 156.368497 478.351149 157.639877 C 476.886836 158.911257 475.076232 159.544474 472.929232 159.544474 C 470.386472 159.544474 468.3582 158.837052 466.844417 157.417262 C 465.330634 156.002419 464.158194 154.26602 463.327097 152.213013 C 462.496 150.160007 461.932042 147.988272 461.640168 145.692862 C 461.348295 143.392505 461.199885 141.31971 461.199885 139.459636 C 461.006952 133.597436 460.858542 127.710501 460.759602 121.798831 C 460.660662 115.882214 460.616138 109.945808 460.616138 103.984668 C 460.616138 99.003035 460.640874 94.115395 460.685397 89.326694 C 460.734867 84.537994 460.759602 79.650354 460.759602 74.668721 C 459.394228 74.861654 457.999173 75.010064 456.58433 75.109004 C 455.16454 75.202997 453.724961 75.252467 452.260648 75.252467 C 451.083261 75.252467 449.544743 75.133739 447.640146 74.886389 C 445.735549 74.643986 443.900211 74.203702 442.144024 73.570486 C 440.382891 72.932322 438.869107 72.051755 437.597727 70.928785 C 436.326347 69.805815 435.693131 68.366237 435.693131 66.605104 C 435.693131 63.67153 436.840836 61.108982 439.136246 58.907565 C 441.436603 56.711095 444.365229 54.806498 447.932019 53.193775 C 451.49881 51.581051 455.46136 50.210731 459.809777 49.087761 C 464.158194 47.964791 468.45714 47.084224 472.706617 46.451008 C 476.961041 45.812844 480.869174 45.347826 484.435964 45.055953 C 488.002754 44.764079 490.763183 44.615669 492.71725 44.615669 C 494.572376 44.615669 496.551178 44.689874 498.653655 44.838284 C 500.756132 44.981748 502.734933 45.397296 504.59006 46.079983 C 506.450134 46.767616 507.988652 47.791646 509.210562 49.161966 C 510.432472 50.527339 511.040954 52.436883 511.040954 54.875756 Z M 511.040954 54.875756 " stroke="#ffffff" stroke-width="3.189923" stroke-opacity="1" stroke-miterlimit="4"/><path stroke-linecap="butt" transform="matrix(0.729175, 0, 0, 0.729175, 145.251265, 453.877701)" fill="none" stroke-linejoin="miter" d="M 59.515462 100.468395 L 59.515462 104.13264 C 59.419035 107.748672 59.220823 111.611129 58.93154 115.714655 C 58.6369 119.818181 58.149406 123.873493 57.463699 127.880591 C 56.777992 131.88769 55.75479 135.723361 54.383376 139.387606 C 53.01732 143.051852 51.158412 146.303601 48.817366 149.137498 C 46.470964 151.971395 43.588853 154.216013 40.165677 155.882066 C 36.747858 157.542762 32.590761 158.37311 27.705101 158.37311 C 22.428373 158.37311 17.810568 157.248123 13.851683 154.998148 C 9.892798 152.75353 6.598192 149.79642 3.95715 146.132174 C 1.321465 142.467929 -0.633871 138.364404 -1.903499 133.81624 C -3.178485 129.273433 -3.810621 124.655627 -3.810621 119.962822 C -3.810621 117.911059 -3.590981 115.618227 -3.1517 113.073613 C -2.712419 110.534355 -1.95707 108.166524 -0.880297 105.964763 C 0.196477 103.768359 1.589319 101.909451 3.298229 100.393396 C 5.007138 98.877342 7.182114 98.121993 9.823156 98.121993 C 12.657053 98.121993 14.783815 98.904127 16.198085 100.468395 C 17.617713 102.032664 18.640916 103.961214 19.278408 106.259403 C 19.910544 108.552234 20.328397 111.048635 20.521252 113.732534 C 20.719464 116.42179 20.960533 118.912834 21.255172 121.211022 C 21.549812 123.509211 22.064092 125.437761 22.792655 127.00203 C 23.526576 128.566298 24.774776 129.348432 26.531899 129.348432 C 28.583662 129.348432 30.196144 128.464513 31.369346 126.70739 C 32.542547 124.950267 33.39968 122.871718 33.935389 120.477102 C 34.471097 118.082486 34.81395 115.666441 34.963949 113.223611 C 35.10859 110.780781 35.183589 108.873659 35.183589 107.502246 C 35.183589 102.032664 34.717523 96.680937 33.790747 91.452424 C 32.858615 86.22391 31.712199 80.920398 30.346143 75.547243 C 29.660436 72.809774 28.926516 70.02409 28.144382 67.190193 C 27.362247 64.356296 26.97118 61.522399 26.97118 58.688502 C 26.97118 55.36711 27.855099 52.656426 29.612222 50.551092 C 31.369346 48.451115 33.962174 47.401127 37.379993 47.401127 C 39.919251 47.401127 41.9228 47.915407 43.390641 48.93861 C 44.858482 49.96717 46.320966 51.456439 47.788806 53.411774 C 50.038782 56.443884 51.919118 59.909917 53.435172 63.820588 C 54.94587 67.731258 56.145857 71.786571 57.024418 75.986524 C 57.90298 80.191835 58.540473 84.418573 58.93154 88.666741 C 59.322607 92.920265 59.515462 96.852364 59.515462 100.468395 Z M 146.884136 103.548718 C 146.884136 107.55046 146.691281 111.680771 146.300214 115.934295 C 145.909147 120.182462 145.22344 124.312774 144.248451 128.319872 C 143.268104 132.32697 141.923477 136.114428 140.214567 139.682246 C 138.505657 143.250064 136.330681 146.373243 133.689639 149.062499 C 131.053954 151.751755 127.877204 153.878517 124.164745 155.437428 C 120.446929 157.001697 116.102334 157.783831 111.11489 157.783831 C 103.7864 157.783831 97.41147 156.074921 91.984745 152.657102 C 86.563376 149.233926 82.041998 144.862546 78.425967 139.532248 C 74.809935 134.207307 72.120679 128.244873 70.363556 121.650303 C 68.606433 115.055734 67.722514 108.530806 67.722514 102.080877 C 67.722514 101.395171 67.722514 100.763035 67.722514 100.173756 C 67.722514 99.589834 67.776085 99.048768 67.872512 98.561274 C 67.96894 96.509511 68.140366 93.723827 68.386792 90.204223 C 68.627861 86.689977 69.045714 82.923947 69.629636 78.916849 C 70.218915 74.90975 70.974264 70.806224 71.901039 66.606271 C 72.833171 62.40096 74.054587 58.640288 75.565284 55.318896 C 77.081339 51.997504 78.913461 49.260035 81.067009 47.106487 C 83.215199 44.958297 85.754457 43.881523 88.690138 43.881523 C 90.838329 43.881523 92.643666 44.519016 94.111507 45.788645 C 95.579348 47.058274 96.773977 48.649327 97.700753 50.551092 C 98.632885 52.458214 99.291807 54.461763 99.682874 56.56174 C 100.073941 58.667073 100.266796 60.595623 100.266796 62.352747 C 100.266796 64.993789 99.998942 67.656259 99.463233 70.345515 C 98.922168 73.029414 98.413245 75.691884 97.920393 78.332927 C 97.143616 82.53288 96.506123 86.73819 96.018629 90.938144 C 95.531134 95.143454 95.284708 99.439835 95.284708 103.838001 C 95.284708 106.087976 95.407921 108.825445 95.64899 112.05041 C 95.895416 115.275374 96.506123 118.377125 97.481112 121.355664 C 98.461459 124.339559 99.8543 126.878817 101.659637 128.978793 C 103.470332 131.07877 105.93459 132.134115 109.063127 132.134115 C 112.095236 132.134115 114.511281 131.105555 116.321975 129.053793 C 118.127312 127.00203 119.47194 124.5592 120.350502 121.725302 C 121.229063 118.891405 121.791557 115.90751 122.037983 112.778973 C 122.279052 109.655793 122.402264 106.966538 122.402264 104.716562 C 122.402264 98.266634 121.866556 91.891705 120.789782 85.586418 C 119.718366 79.286487 118.298739 73.007986 116.541615 66.750912 C 116.054121 65.090216 115.636268 63.42952 115.293415 61.768825 C 114.950561 60.108129 114.779135 58.447433 114.779135 56.78138 C 114.779135 54.049267 115.588054 51.654651 117.200536 49.602888 C 118.813019 47.545768 121.084422 46.522565 124.014747 46.522565 C 126.457577 46.522565 128.734337 47.476126 130.834314 49.383248 C 132.934291 51.285012 134.814627 53.776056 136.475323 56.856379 C 138.136019 59.936702 139.577074 63.381307 140.798489 67.190193 C 142.025261 71.004436 143.075249 74.791894 143.953811 78.552567 C 144.832373 82.31324 145.491294 85.907843 145.930575 89.325662 C 146.369856 92.748838 146.643067 95.534521 146.739495 97.682712 C 146.835922 98.657701 146.884136 99.611262 146.884136 100.543395 C 146.884136 101.47017 146.884136 102.471945 146.884136 103.548718 Z M 204.494211 52.093932 C 204.494211 54.33855 203.787076 56.293885 202.367449 57.954581 C 200.953179 59.615277 199.265698 60.98669 197.310362 62.063464 C 195.553239 63.134881 193.742545 64.286654 191.888994 65.508069 C 190.030086 66.729484 188.321176 68.09554 186.756908 69.611595 C 185.192639 71.127649 183.923011 72.809774 182.948021 74.668682 C 181.967675 76.522232 181.480181 78.627566 181.480181 80.968612 C 181.480181 83.025732 181.967675 84.879283 182.948021 86.539978 C 183.923011 88.200674 185.122997 89.839942 186.537267 91.452424 C 187.956894 93.064906 189.515806 94.725602 191.230072 96.434512 C 192.938982 98.148778 194.50325 100.050543 195.91752 102.155877 C 197.337148 104.255853 198.531777 106.623684 199.512123 109.264726 C 200.487113 111.900411 200.974607 114.980734 200.974607 118.500338 C 200.974607 120.943168 200.465684 123.702066 199.437124 126.782389 C 198.413921 129.857355 197.02108 132.964463 195.258599 136.087643 C 193.501476 139.21618 191.422927 142.248289 189.028311 145.178614 C 186.633695 148.108938 184.094437 150.723195 181.405181 153.021384 C 178.721283 155.319573 175.908814 157.173123 172.978489 158.592751 C 170.048165 160.007021 167.214267 160.719513 164.476798 160.719513 C 161.444689 160.719513 158.76079 159.883808 156.414387 158.223112 C 154.067985 156.562416 152.894783 154.071372 152.894783 150.74998 C 152.894783 148.500005 153.430492 146.426814 154.507265 144.519692 C 155.584039 142.612571 156.901882 140.780448 158.46615 139.023325 C 160.030419 137.260844 161.760756 135.551935 163.667878 133.891239 C 165.575 132.230543 167.310695 130.569847 168.874963 128.909151 C 170.439232 127.243098 171.757074 125.51276 172.828491 123.702066 C 173.905265 121.896729 174.440973 119.962822 174.440973 117.911059 C 174.440973 115.077162 173.444555 112.168266 171.441006 109.189727 C 169.437457 106.211189 167.214267 103.130866 164.76608 99.954115 C 162.32325 96.777365 160.100061 93.530972 158.096511 90.204223 C 156.092962 86.882832 155.091188 83.513226 155.091188 80.09005 C 155.091188 75.890097 156.216175 71.465146 158.46615 66.825911 C 160.710768 62.18132 163.598236 57.933153 167.112483 54.070696 C 170.632087 50.213596 174.590971 47.01006 178.989137 44.470802 C 183.387302 41.926188 187.737254 40.656559 192.033635 40.656559 C 195.456811 40.656559 198.387136 41.685119 200.829966 43.736882 C 203.272796 45.788645 204.494211 48.574328 204.494211 52.093932 Z M 273.097021 54.879615 C 273.097021 57.322445 272.148818 59.545635 270.241696 61.549184 C 268.334574 63.552733 266.036385 65.309857 263.352487 66.825911 C 260.663231 68.341966 257.904333 69.584809 255.070436 70.565156 C 252.236539 71.540145 249.890136 72.225851 248.031228 72.616919 C 247.249094 80.138264 246.638386 87.643538 246.199105 95.116669 C 245.759825 102.595157 245.540184 110.095074 245.540184 117.616419 C 245.540184 121.623518 245.636612 125.582402 245.834824 129.493073 C 246.027679 133.403744 246.124106 137.309058 246.124106 141.219729 C 246.124106 142.976852 245.958037 144.910759 245.615183 147.010736 C 245.27233 149.110713 244.683051 151.092834 243.852703 152.946385 C 243.022355 154.805293 241.875939 156.369561 240.408098 157.63919 C 238.945615 158.908818 237.13492 159.546311 234.98673 159.546311 C 232.447472 159.546311 230.417138 158.833819 228.901083 157.419549 C 227.385028 155.999922 226.217184 154.269584 225.381479 152.212464 C 224.551131 150.160701 223.993995 147.985725 223.699355 145.692894 C 223.404715 143.394705 223.260074 141.316156 223.260074 139.462606 C 223.061862 133.596599 222.917221 127.709165 222.820793 121.794944 C 222.719009 115.886081 222.670795 109.945076 222.670795 103.987999 C 222.670795 99.000554 222.69758 94.114894 222.745794 89.325662 C 222.794008 84.536429 222.820793 79.650769 222.820793 74.668682 C 221.44938 74.861537 220.056538 75.011535 218.642268 75.107962 C 217.222641 75.20439 215.781586 75.252604 214.313745 75.252604 C 213.145901 75.252604 211.603061 75.129391 209.701296 74.888322 C 207.794174 74.641896 205.962052 74.202615 204.199571 73.570479 C 202.442448 72.932986 200.926393 72.054425 199.656765 70.929437 C 198.387136 69.80445 197.749643 68.363394 197.749643 66.606271 C 197.749643 63.675946 198.901416 61.109903 201.194248 58.908142 C 203.492436 56.711738 206.422761 54.804616 209.990579 53.192134 C 213.558396 51.579652 217.517281 50.213596 221.867233 49.088608 C 226.217184 47.963621 230.513565 47.085059 234.767089 46.447566 C 239.015257 45.81543 242.925928 45.349364 246.493745 45.054724 C 250.061563 44.765442 252.820461 44.615443 254.775796 44.615443 C 256.634704 44.615443 258.611468 44.690443 260.711445 44.835084 C 262.811421 44.985082 264.793542 45.397578 266.647093 46.083284 C 268.506001 46.768991 270.043484 47.792194 271.264899 49.15825 C 272.486314 50.529664 273.097021 52.436785 273.097021 54.879615 Z M 273.097021 54.879615 " stroke="#ffffff" stroke-width="3.189923" stroke-opacity="1" stroke-miterlimit="4"/><g fill="#ffffff" fill-opacity="1"><g transform="translate(395.01139, 568.410822)"><g><path d="M 3.65625 -82.59375 L 26.0625 -82.59375 C 32.082031 -82.59375 36.453125 -81.117188 39.171875 -78.171875 C 41.898438 -75.222656 43.265625 -70.414062 43.265625 -63.75 L 43.265625 -60.09375 C 43.265625 -52.207031 40.445312 -47.5 34.8125 -45.96875 C 38.269531 -45.0625 40.703125 -42.972656 42.109375 -39.703125 C 43.523438 -36.441406 44.234375 -32.117188 44.234375 -26.734375 C 44.234375 -17.953125 42.914062 -11.300781 40.28125 -6.78125 C 37.65625 -2.257812 32.914062 0 26.0625 0 L 3.65625 0 Z M 23.171875 -51.546875 C 24.585938 -51.546875 25.550781 -52.070312 26.0625 -53.125 C 26.570312 -54.1875 26.828125 -55.675781 26.828125 -57.59375 L 26.828125 -65.859375 C 26.828125 -68.554688 25.640625 -69.90625 23.265625 -69.90625 L 19.8125 -69.90625 L 19.8125 -51.546875 Z M 21.4375 -14.515625 C 25.738281 -14.515625 27.890625 -16.566406 27.890625 -20.671875 L 27.890625 -30.96875 C 27.890625 -33.46875 27.519531 -35.359375 26.78125 -36.640625 C 26.039062 -37.921875 24.742188 -38.5625 22.890625 -38.5625 L 19.8125 -38.5625 L 19.8125 -14.609375 Z M 21.4375 -14.515625 "/></g></g></g><g fill="#ffffff" fill-opacity="1"><g transform="translate(441.073547, 568.410822)"><g><path d="M 22.78125 0.765625 C 15.988281 0.765625 10.941406 -1.15625 7.640625 -5 C 4.335938 -8.84375 2.6875 -14.546875 2.6875 -22.109375 L 2.6875 -82.59375 L 18.75 -82.59375 L 18.75 -22.78125 C 18.75 -20.15625 19.003906 -18.101562 19.515625 -16.625 C 20.023438 -15.15625 21.113281 -14.421875 22.78125 -14.421875 C 24.457031 -14.421875 25.550781 -15.140625 26.0625 -16.578125 C 26.570312 -18.023438 26.828125 -20.09375 26.828125 -22.78125 L 26.828125 -82.59375 L 42.890625 -82.59375 L 42.890625 -22.109375 C 42.890625 -14.546875 41.238281 -8.84375 37.9375 -5 C 34.632812 -1.15625 29.582031 0.765625 22.78125 0.765625 Z M 22.78125 0.765625 "/></g></g></g><g fill="#ffffff" fill-opacity="1"><g transform="translate(486.654894, 568.410822)"><g><path d="M 23.265625 0.765625 C 15.765625 0.765625 10.347656 -1.09375 7.015625 -4.8125 C 3.679688 -8.53125 2.015625 -14.519531 2.015625 -22.78125 L 2.015625 -30.859375 L 18.265625 -30.859375 L 18.265625 -20.578125 C 18.265625 -16.472656 19.582031 -14.421875 22.21875 -14.421875 C 23.6875 -14.421875 24.707031 -14.851562 25.28125 -15.71875 C 25.863281 -16.582031 26.15625 -18.039062 26.15625 -20.09375 C 26.15625 -22.789062 25.832031 -25.019531 25.1875 -26.78125 C 24.550781 -28.539062 23.734375 -30.015625 22.734375 -31.203125 C 21.742188 -32.390625 19.96875 -34.234375 17.40625 -36.734375 L 10.28125 -43.84375 C 4.769531 -49.226562 2.015625 -55.191406 2.015625 -61.734375 C 2.015625 -68.785156 3.632812 -74.15625 6.875 -77.84375 C 10.113281 -81.53125 14.84375 -83.375 21.0625 -83.375 C 28.5 -83.375 33.847656 -81.398438 37.109375 -77.453125 C 40.378906 -73.515625 42.015625 -67.34375 42.015625 -58.9375 L 25.1875 -58.9375 L 25.09375 -64.609375 C 25.09375 -65.703125 24.785156 -66.566406 24.171875 -67.203125 C 23.566406 -67.847656 22.722656 -68.171875 21.640625 -68.171875 C 20.359375 -68.171875 19.394531 -67.816406 18.75 -67.109375 C 18.101562 -66.410156 17.78125 -65.453125 17.78125 -64.234375 C 17.78125 -61.535156 19.320312 -58.742188 22.40625 -55.859375 L 32.015625 -46.640625 C 34.265625 -44.453125 36.125 -42.378906 37.59375 -40.421875 C 39.070312 -38.472656 40.257812 -36.164062 41.15625 -33.5 C 42.050781 -30.84375 42.5 -27.691406 42.5 -24.046875 C 42.5 -15.898438 41.007812 -9.726562 38.03125 -5.53125 C 35.050781 -1.332031 30.128906 0.765625 23.265625 0.765625 Z M 23.265625 0.765625 "/></g></g></g><g fill="#ffffff" fill-opacity="1"><g transform="translate(530.98611, 568.410822)"><g><path d="M 2.890625 0 L 2.890625 -82.59375 L 18.84375 -82.59375 L 18.84375 0 Z M 2.890625 0 "/></g></g></g><g fill="#ffffff" fill-opacity="1"><g transform="translate(552.815146, 568.410822)"><g><path d="M 3.65625 0 L 3.65625 -82.59375 L 20.671875 -82.59375 L 28.265625 -43.078125 L 28.265625 -82.59375 L 44.234375 -82.59375 L 44.234375 0 L 28.078125 0 L 19.8125 -41.34375 L 19.8125 0 Z M 3.65625 0 "/></g></g></g><g fill="#ffffff" fill-opacity="1"><g transform="translate(600.704403, 568.410822)"><g><path d="M 3.65625 0 L 3.65625 -82.59375 L 36.734375 -82.59375 L 36.734375 -66.640625 L 20.484375 -66.640625 L 20.484375 -50.578125 L 36.0625 -50.578125 L 36.0625 -35 L 20.484375 -35 L 20.484375 -16.0625 L 37.796875 -16.0625 L 37.796875 0 Z M 3.65625 0 "/></g></g></g><g fill="#ffffff" fill-opacity="1"><g transform="translate(640.323624, 568.410822)"><g><path d="M 23.265625 0.765625 C 15.765625 0.765625 10.347656 -1.09375 7.015625 -4.8125 C 3.679688 -8.53125 2.015625 -14.519531 2.015625 -22.78125 L 2.015625 -30.859375 L 18.265625 -30.859375 L 18.265625 -20.578125 C 18.265625 -16.472656 19.582031 -14.421875 22.21875 -14.421875 C 23.6875 -14.421875 24.707031 -14.851562 25.28125 -15.71875 C 25.863281 -16.582031 26.15625 -18.039062 26.15625 -20.09375 C 26.15625 -22.789062 25.832031 -25.019531 25.1875 -26.78125 C 24.550781 -28.539062 23.734375 -30.015625 22.734375 -31.203125 C 21.742188 -32.390625 19.96875 -34.234375 17.40625 -36.734375 L 10.28125 -43.84375 C 4.769531 -49.226562 2.015625 -55.191406 2.015625 -61.734375 C 2.015625 -68.785156 3.632812 -74.15625 6.875 -77.84375 C 10.113281 -81.53125 14.84375 -83.375 21.0625 -83.375 C 28.5 -83.375 33.847656 -81.398438 37.109375 -77.453125 C 40.378906 -73.515625 42.015625 -67.34375 42.015625 -58.9375 L 25.1875 -58.9375 L 25.09375 -64.609375 C 25.09375 -65.703125 24.785156 -66.566406 24.171875 -67.203125 C 23.566406 -67.847656 22.722656 -68.171875 21.640625 -68.171875 C 20.359375 -68.171875 19.394531 -67.816406 18.75 -67.109375 C 18.101562 -66.410156 17.78125 -65.453125 17.78125 -64.234375 C 17.78125 -61.535156 19.320312 -58.742188 22.40625 -55.859375 L 32.015625 -46.640625 C 34.265625 -44.453125 36.125 -42.378906 37.59375 -40.421875 C 39.070312 -38.472656 40.257812 -36.164062 41.15625 -33.5 C 42.050781 -30.84375 42.5 -27.691406 42.5 -24.046875 C 42.5 -15.898438 41.007812 -9.726562 38.03125 -5.53125 C 35.050781 -1.332031 30.128906 0.765625 23.265625 0.765625 Z M 23.265625 0.765625 "/></g></g></g><g fill="#ffffff" fill-opacity="1"><g transform="translate(684.65484, 568.410822)"><g><path d="M 23.265625 0.765625 C 15.765625 0.765625 10.347656 -1.09375 7.015625 -4.8125 C 3.679688 -8.53125 2.015625 -14.519531 2.015625 -22.78125 L 2.015625 -30.859375 L 18.265625 -30.859375 L 18.265625 -20.578125 C 18.265625 -16.472656 19.582031 -14.421875 22.21875 -14.421875 C 23.6875 -14.421875 24.707031 -14.851562 25.28125 -15.71875 C 25.863281 -16.582031 26.15625 -18.039062 26.15625 -20.09375 C 26.15625 -22.789062 25.832031 -25.019531 25.1875 -26.78125 C 24.550781 -28.539062 23.734375 -30.015625 22.734375 -31.203125 C 21.742188 -32.390625 19.96875 -34.234375 17.40625 -36.734375 L 10.28125 -43.84375 C 4.769531 -49.226562 2.015625 -55.191406 2.015625 -61.734375 C 2.015625 -68.785156 3.632812 -74.15625 6.875 -77.84375 C 10.113281 -81.53125 14.84375 -83.375 21.0625 -83.375 C 28.5 -83.375 33.847656 -81.398438 37.109375 -77.453125 C 40.378906 -73.515625 42.015625 -67.34375 42.015625 -58.9375 L 25.1875 -58.9375 L 25.09375 -64.609375 C 25.09375 -65.703125 24.785156 -66.566406 24.171875 -67.203125 C 23.566406 -67.847656 22.722656 -68.171875 21.640625 -68.171875 C 20.359375 -68.171875 19.394531 -67.816406 18.75 -67.109375 C 18.101562 -66.410156 17.78125 -65.453125 17.78125 -64.234375 C 17.78125 -61.535156 19.320312 -58.742188 22.40625 -55.859375 L 32.015625 -46.640625 C 34.265625 -44.453125 36.125 -42.378906 37.59375 -40.421875 C 39.070312 -38.472656 40.257812 -36.164062 41.15625 -33.5 C 42.050781 -30.84375 42.5 -27.691406 42.5 -24.046875 C 42.5 -15.898438 41.007812 -9.726562 38.03125 -5.53125 C 35.050781 -1.332031 30.128906 0.765625 23.265625 0.765625 Z M 23.265625 0.765625 "/></g></g></g><g clip-path="url(#f22ddf3097)"><g clip-path="url(#4684377b49)"><path stroke-linecap="butt" transform="matrix(0.75, 0, 0, 0.75, 300.869021, 650.647955)" fill="none" stroke-linejoin="miter" d="M 38.164226 0.000642978 L 239.513207 0.000642978 C 249.638209 0.000642978 259.341335 4.021477 266.502794 11.177728 C 273.659045 18.333978 277.679879 28.042313 277.679879 38.162106 C 277.679879 48.287107 273.659045 57.995441 266.502794 65.151692 C 259.341335 72.307943 249.638209 76.328777 239.513207 76.328777 L 38.164226 76.328777 C 28.044433 76.328777 18.336099 72.307943 11.179848 65.151692 C 4.018389 57.995441 -0.00244489 48.287107 -0.00244489 38.162106 C -0.00244489 28.042313 4.018389 18.333978 11.179848 11.177728 C 18.336099 4.021477 28.044433 0.000642978 38.164226 0.000642978 Z M 38.164226 0.000642978 " stroke="#ffffff" stroke-width="4" stroke-opacity="1" stroke-miterlimit="4"/></g></g><g fill="#ffffff" fill-opacity="1"><g transform="translate(331.199724, 685.897953)"><g><path d="M 6.859375 0 L 4.171875 0 L 4.171875 -10.640625 L 0.265625 -10.640625 L 0.265625 -12.921875 L 10.78125 -12.921875 L 10.78125 -10.640625 L 6.859375 -10.640625 Z M 6.859375 0 "/></g></g><g transform="translate(342.238786, 685.897953)"><g><path d="M 11.765625 -12.921875 L 11.765625 0 L 9.0625 0 L 9.0625 -5.796875 L 4.015625 -5.796875 L 4.015625 0 L 1.3125 0 L 1.3125 -12.921875 L 4.015625 -12.921875 L 4.015625 -8.03125 L 9.0625 -8.03125 L 9.0625 -12.921875 Z M 11.765625 -12.921875 "/></g></g><g transform="translate(355.31691, 685.897953)"><g><path d="M 10.8125 -10.640625 L 3.96875 -10.640625 L 3.96875 -7.921875 L 10.265625 -7.921875 L 10.265625 -5.640625 L 3.96875 -5.640625 L 3.96875 -2.28125 L 11.125 -2.28125 L 11.125 0 L 1.3125 0 L 1.3125 -12.921875 L 10.8125 -12.921875 Z M 10.8125 -10.640625 "/></g></g><g transform="translate(367.234879, 685.897953)"><g><path d="M 9.609375 -8.6875 C 9.273438 -10.175781 8.320312 -10.921875 6.75 -10.921875 C 5.769531 -10.921875 4.988281 -10.519531 4.40625 -9.71875 C 3.832031 -8.925781 3.546875 -7.820312 3.546875 -6.40625 C 3.546875 -5.070312 3.828125 -4.003906 4.390625 -3.203125 C 4.953125 -2.398438 5.738281 -2 6.75 -2 C 8.300781 -2 9.253906 -2.8125 9.609375 -4.4375 L 12.3125 -4.4375 C 12.125 -3.101562 11.546875 -1.972656 10.578125 -1.046875 C 9.609375 -0.117188 8.316406 0.34375 6.703125 0.34375 C 4.890625 0.34375 3.453125 -0.25 2.390625 -1.4375 C 1.328125 -2.632812 0.796875 -4.300781 0.796875 -6.4375 C 0.796875 -8.488281 1.320312 -10.140625 2.375 -11.390625 C 3.4375 -12.640625 4.890625 -13.265625 6.734375 -13.265625 C 8.347656 -13.265625 9.648438 -12.828125 10.640625 -11.953125 C 11.628906 -11.085938 12.1875 -10 12.3125 -8.6875 Z M 9.609375 -8.6875 "/></g></g><g transform="translate(380.25148, 685.897953)"><g><path d="M 11.765625 -12.921875 L 11.765625 0 L 9.0625 0 L 9.0625 -5.796875 L 4.015625 -5.796875 L 4.015625 0 L 1.3125 0 L 1.3125 -12.921875 L 4.015625 -12.921875 L 4.015625 -8.03125 L 9.0625 -8.03125 L 9.0625 -12.921875 Z M 11.765625 -12.921875 "/></g></g><g transform="translate(393.329604, 685.897953)"><g><path d="M 10.8125 -10.640625 L 3.96875 -10.640625 L 3.96875 -7.921875 L 10.265625 -7.921875 L 10.265625 -5.640625 L 3.96875 -5.640625 L 3.96875 -2.28125 L 11.125 -2.28125 L 11.125 0 L 1.3125 0 L 1.3125 -12.921875 L 10.8125 -12.921875 Z M 10.8125 -10.640625 "/></g></g><g transform="translate(405.247572, 685.897953)"><g><path d="M 10.8125 -10.640625 L 3.96875 -10.640625 L 3.96875 -7.921875 L 10.265625 -7.921875 L 10.265625 -5.640625 L 3.96875 -5.640625 L 3.96875 -2.28125 L 11.125 -2.28125 L 11.125 0 L 1.3125 0 L 1.3125 -12.921875 L 10.8125 -12.921875 Z M 10.8125 -10.640625 "/></g></g><g transform="translate(417.16554, 685.897953)"><g><path d="M 3.34375 -3.984375 C 3.34375 -3.347656 3.578125 -2.835938 4.046875 -2.453125 C 4.515625 -2.078125 5.191406 -1.890625 6.078125 -1.890625 C 6.953125 -1.890625 7.617188 -2.03125 8.078125 -2.3125 C 8.535156 -2.601562 8.765625 -3.019531 8.765625 -3.5625 C 8.765625 -3.894531 8.644531 -4.179688 8.40625 -4.421875 C 8.175781 -4.660156 7.613281 -4.882812 6.71875 -5.09375 L 4.53125 -5.609375 C 3.132812 -5.929688 2.1875 -6.375 1.6875 -6.9375 C 1.1875 -7.507812 0.9375 -8.296875 0.9375 -9.296875 C 0.9375 -10.460938 1.347656 -11.414062 2.171875 -12.15625 C 3.003906 -12.894531 4.253906 -13.265625 5.921875 -13.265625 C 7.566406 -13.265625 8.8125 -12.847656 9.65625 -12.015625 C 10.507812 -11.179688 10.941406 -10.207031 10.953125 -9.09375 L 8.359375 -9.09375 C 8.296875 -9.71875 8.046875 -10.195312 7.609375 -10.53125 C 7.179688 -10.863281 6.550781 -11.03125 5.71875 -11.03125 C 5.039062 -11.03125 4.492188 -10.890625 4.078125 -10.609375 C 3.671875 -10.335938 3.46875 -9.960938 3.46875 -9.484375 C 3.46875 -9.148438 3.554688 -8.875 3.734375 -8.65625 C 3.921875 -8.445312 4.210938 -8.289062 4.609375 -8.1875 L 8.0625 -7.34375 C 9.3125 -7.03125 10.171875 -6.585938 10.640625 -6.015625 C 11.117188 -5.453125 11.359375 -4.742188 11.359375 -3.890625 C 11.359375 -2.484375 10.867188 -1.425781 9.890625 -0.71875 C 8.921875 -0.0078125 7.71875 0.34375 6.28125 0.34375 C 4.414062 0.34375 3.023438 -0.0507812 2.109375 -0.84375 C 1.203125 -1.644531 0.75 -2.691406 0.75 -3.984375 Z M 3.34375 -3.984375 "/></g></g><g transform="translate(429.232923, 685.897953)"><g><path d="M 6.515625 -6.890625 C 7.203125 -6.890625 7.707031 -7.046875 8.03125 -7.359375 C 8.363281 -7.679688 8.53125 -8.175781 8.53125 -8.84375 C 8.53125 -9.519531 8.34375 -10 7.96875 -10.28125 C 7.601562 -10.5625 7.050781 -10.703125 6.3125 -10.703125 L 4.015625 -10.703125 L 4.015625 -6.890625 Z M 4.015625 0 L 1.3125 0 L 1.3125 -12.921875 L 7.21875 -12.921875 C 8.445312 -12.921875 9.421875 -12.550781 10.140625 -11.8125 C 10.867188 -11.070312 11.234375 -10.0625 11.234375 -8.78125 C 11.234375 -7.675781 10.878906 -6.710938 10.171875 -5.890625 C 9.460938 -5.066406 8.441406 -4.65625 7.109375 -4.65625 L 4.015625 -4.65625 Z M 4.015625 0 "/></g></g><g transform="translate(441.124524, 685.897953)"><g><path d="M 4.6875 -4.890625 L 7.984375 -4.890625 L 6.375 -10.015625 L 6.34375 -10.015625 Z M 3.0625 0 L 0.21875 0 L 4.828125 -12.921875 L 7.953125 -12.921875 L 12.5 0 L 9.5625 0 L 8.734375 -2.65625 L 3.96875 -2.65625 Z M 3.0625 0 "/></g></g><g transform="translate(453.842296, 685.897953)"><g><path d="M 9.609375 -8.6875 C 9.273438 -10.175781 8.320312 -10.921875 6.75 -10.921875 C 5.769531 -10.921875 4.988281 -10.519531 4.40625 -9.71875 C 3.832031 -8.925781 3.546875 -7.820312 3.546875 -6.40625 C 3.546875 -5.070312 3.828125 -4.003906 4.390625 -3.203125 C 4.953125 -2.398438 5.738281 -2 6.75 -2 C 8.300781 -2 9.253906 -2.8125 9.609375 -4.4375 L 12.3125 -4.4375 C 12.125 -3.101562 11.546875 -1.972656 10.578125 -1.046875 C 9.609375 -0.117188 8.316406 0.34375 6.703125 0.34375 C 4.890625 0.34375 3.453125 -0.25 2.390625 -1.4375 C 1.328125 -2.632812 0.796875 -4.300781 0.796875 -6.4375 C 0.796875 -8.488281 1.320312 -10.140625 2.375 -11.390625 C 3.4375 -12.640625 4.890625 -13.265625 6.734375 -13.265625 C 8.347656 -13.265625 9.648438 -12.828125 10.640625 -11.953125 C 11.628906 -11.085938 12.1875 -10 12.3125 -8.6875 Z M 9.609375 -8.6875 "/></g></g><g transform="translate(466.858897, 685.897953)"><g><path d="M 10.8125 -10.640625 L 3.96875 -10.640625 L 3.96875 -7.921875 L 10.265625 -7.921875 L 10.265625 -5.640625 L 3.96875 -5.640625 L 3.96875 -2.28125 L 11.125 -2.28125 L 11.125 0 L 1.3125 0 L 1.3125 -12.921875 L 10.8125 -12.921875 Z M 10.8125 -10.640625 "/></g></g></g></svg>